<?xml version="1.0" encoding="utf-8"?>
<!-- Generator: Adobe Illustrator 23.0.4, SVG Export Plug-In . SVG Version: 6.00 Build 0)  -->
<svg version="1.1" id="Capa_1" xmlns="http://www.w3.org/2000/svg" xmlns:xlink="http://www.w3.org/1999/xlink" x="0px" y="0px"
	 viewBox="0 0 512 512" style="enable-background:new 0 0 512 512;" xml:space="preserve">
<style type="text/css">
	.st0{fill:url(#XMLID_2_);}
	.st1{fill:url(#XMLID_3_);}
	.st2{fill:url(#XMLID_4_);}
	.st3{fill:url(#XMLID_5_);}
	.st4{fill:url(#XMLID_6_);}
	.st5{fill:url(#XMLID_7_);}
	.st6{fill:url(#XMLID_8_);}
	.st7{fill:url(#XMLID_9_);}
	.st8{fill:url(#XMLID_10_);}
	.st9{fill:url(#XMLID_11_);}
	.st10{fill:url(#XMLID_12_);}
	.st11{opacity:0.5;}
	.st12{fill:none;stroke:#00FF99;stroke-miterlimit:10;}
	.st13{fill:none;stroke:#FFFFFF;stroke-width:5;stroke-miterlimit:10;}
	.st14{fill:none;stroke:url(#SVGID_1_);stroke-miterlimit:10;}
	.st15{fill:#6CAA00;}
	.st16{fill:none;stroke:url(#SVGID_2_);stroke-width:5;stroke-miterlimit:10;}
	.st17{fill:none;stroke:url(#SVGID_3_);stroke-width:5;stroke-miterlimit:10;}
	.st18{fill:none;stroke:url(#SVGID_4_);stroke-width:5;stroke-miterlimit:10;}
	.st19{fill:none;stroke:url(#SVGID_5_);stroke-width:5;stroke-miterlimit:10;}
	.st20{fill:none;stroke:url(#SVGID_6_);stroke-width:5;stroke-miterlimit:10;}
	.st21{fill:#FFFFFF;}
</style>
<linearGradient id="XMLID_2_" gradientUnits="userSpaceOnUse" x1="220.5" y1="194" x2="222.1" y2="194">
	<stop  offset="0" style="stop-color:#00FF99"/>
	<stop  offset="1" style="stop-color:#33CCFF"/>
</linearGradient>
<circle id="XMLID_302_" class="st0" cx="221.3" cy="194" r="0.8"/>
<linearGradient id="XMLID_3_" gradientUnits="userSpaceOnUse" x1="314.4" y1="123.5" x2="318" y2="123.5">
	<stop  offset="0" style="stop-color:#00FF99"/>
	<stop  offset="1" style="stop-color:#33CCFF"/>
</linearGradient>
<circle id="XMLID_37_" class="st1" cx="316.2" cy="123.5" r="1.8"/>
<linearGradient id="XMLID_4_" gradientUnits="userSpaceOnUse" x1="334.2" y1="43.5" x2="335.6" y2="43.5">
	<stop  offset="0" style="stop-color:#00FF99"/>
	<stop  offset="1" style="stop-color:#33CCFF"/>
</linearGradient>
<circle id="XMLID_43_" class="st2" cx="334.9" cy="43.5" r="0.7"/>
<linearGradient id="XMLID_5_" gradientUnits="userSpaceOnUse" x1="205.5" y1="119" x2="209.1" y2="119">
	<stop  offset="0" style="stop-color:#00FF99"/>
	<stop  offset="1" style="stop-color:#33CCFF"/>
</linearGradient>
<circle id="XMLID_143_" class="st3" cx="207.3" cy="119" r="1.8"/>
<linearGradient id="XMLID_6_" gradientUnits="userSpaceOnUse" x1="327.4" y1="202.9" x2="328.8" y2="202.9">
	<stop  offset="0" style="stop-color:#00FF99"/>
	<stop  offset="1" style="stop-color:#33CCFF"/>
</linearGradient>
<circle id="XMLID_142_" class="st4" cx="328.1" cy="202.9" r="0.7"/>
<linearGradient id="XMLID_7_" gradientUnits="userSpaceOnUse" x1="253.6" y1="136.6" x2="255.6" y2="136.6">
	<stop  offset="0" style="stop-color:#00FF99"/>
	<stop  offset="1" style="stop-color:#33CCFF"/>
</linearGradient>
<circle id="XMLID_140_" class="st5" cx="254.6" cy="136.6" r="1"/>
<linearGradient id="XMLID_8_" gradientUnits="userSpaceOnUse" x1="244.3" y1="177.8" x2="245.7" y2="177.8">
	<stop  offset="0" style="stop-color:#00FF99"/>
	<stop  offset="1" style="stop-color:#33CCFF"/>
</linearGradient>
<circle id="XMLID_72_" class="st6" cx="245" cy="177.8" r="0.7"/>
<linearGradient id="XMLID_9_" gradientUnits="userSpaceOnUse" x1="284.8" y1="16808.9004" x2="286.7336" y2="16808.9004" gradientTransform="matrix(1 0 0 1 0 -16574)">
	<stop  offset="2.945171e-07" style="stop-color:#3F00FC"/>
	<stop  offset="0.2077" style="stop-color:#3F02F7"/>
	<stop  offset="0.4672" style="stop-color:#3E09E7"/>
	<stop  offset="0.7531" style="stop-color:#3E14CE"/>
	<stop  offset="1" style="stop-color:#3D20B2"/>
</linearGradient>
<circle id="XMLID_70_" class="st7" cx="285.8" cy="234.9" r="1"/>
<linearGradient id="XMLID_10_" gradientUnits="userSpaceOnUse" x1="219.5" y1="25.9" x2="223.1" y2="25.9">
	<stop  offset="0" style="stop-color:#00FF99"/>
	<stop  offset="1" style="stop-color:#33CCFF"/>
</linearGradient>
<circle id="XMLID_369_" class="st8" cx="221.3" cy="25.9" r="1.8"/>
<linearGradient id="XMLID_11_" gradientUnits="userSpaceOnUse" x1="257.4" y1="84.5" x2="261" y2="84.5">
	<stop  offset="0" style="stop-color:#00FF99"/>
	<stop  offset="1" style="stop-color:#33CCFF"/>
</linearGradient>
<circle id="XMLID_359_" class="st9" cx="259.2" cy="84.5" r="1.8"/>
<linearGradient id="XMLID_12_" gradientUnits="userSpaceOnUse" x1="271.8" y1="65.1" x2="273.8" y2="65.1">
	<stop  offset="0" style="stop-color:#00FF99"/>
	<stop  offset="1" style="stop-color:#33CCFF"/>
</linearGradient>
<circle id="XMLID_358_" class="st10" cx="272.8" cy="65.1" r="1"/>
<g class="st11">
	<g>
		<line class="st12" x1="254.6" y1="0" x2="254.6" y2="200.5"/>
	</g>
</g>
<path class="st13" d="M-126.4,676.6h29.1c4.8,0,8.7-3.9,8.7-8.7v-84.5c0-4.8-3.9-8.7-8.7-8.7h-170.1V404.5c0-4.8-3.9-8.7-8.7-8.7
	h-84.5c-4.8,0-8.7,3.9-8.7,8.7v170.1h-170.2c-4.8,0-8.7,3.9-8.7,8.7v84.6c0,4.8,3.9,8.7,8.7,8.7h32.7"/>
<polyline class="st13" points="-267.4,742.1 -267.4,676.6 -216.1,676.6 "/>
<path class="st13" d="M-226.7,901.2"/>
<polyline class="st13" points="-415.8,676.6 -369.4,676.6 -369.4,739.1 "/>
<path class="st13" d="M-329.2,893.6c0-6.1,10.2-22.4,11-22.4s11,16.3,11,22.4s-4.9,11-11,11S-329.2,899.7-329.2,893.6z"/>
<path class="st13" d="M-337.9,968.6c0-10.9,18.2-39.9,19.7-39.9c1.4,0,19.7,29.1,19.7,39.9s-8.8,19.7-19.7,19.7
	S-337.9,979.5-337.9,968.6z"/>
<linearGradient id="SVGID_1_" gradientUnits="userSpaceOnUse" x1="-315.85" y1="-162.2604" x2="-315.85" y2="-162.2604" gradientTransform="matrix(1 0 0 -1 0 374)">
	<stop  offset="0" style="stop-color:#6666FF"/>
	<stop  offset="1" style="stop-color:#897DE4"/>
</linearGradient>
<path class="st14" d="M-315.9,536.3"/>
<circle class="st15" cx="-37.1" cy="635.8" r="3"/>
<circle class="st15" cx="-88" cy="549.5" r="3"/>
<circle class="st15" cx="-147.3" cy="512.1" r="3"/>
<circle class="st15" cx="-56.3" cy="567.9" r="3"/>
<circle class="st15" cx="-116.8" cy="530.2" r="3"/>
<circle class="st15" cx="-171.4" cy="497.9" r="3"/>
<circle class="st15" cx="-198.3" cy="484.5" r="3"/>
<circle class="st15" cx="-223.7" cy="469.6" r="3"/>
<circle class="st15" cx="-249.7" cy="456.2" r="3"/>
<circle class="st15" cx="-37.1" cy="600.1" r="3"/>
<circle class="st15" cx="-37.1" cy="670.3" r="3"/>
<circle class="st15" cx="-37.1" cy="705.7" r="3"/>
<circle class="st15" cx="-37.1" cy="739.1" r="3"/>
<circle class="st15" cx="-37.1" cy="775.6" r="3"/>
<circle class="st15" cx="-123.4" cy="932.2" r="3"/>
<circle class="st15" cx="-37.1" cy="879.2" r="3"/>
<circle class="st15" cx="-37.1" cy="809.3" r="3"/>
<circle class="st15" cx="-37.1" cy="845" r="3"/>
<circle class="st15" cx="-62.6" cy="898.8" r="3"/>
<circle class="st15" cx="-91.1" cy="914.8" r="3"/>
<circle class="st15" cx="-154.5" cy="947.1" r="3"/>
<circle class="st15" cx="-185.4" cy="965" r="3"/>
<circle class="st15" cx="-216.1" cy="981.4" r="3"/>
<circle class="st15" cx="-246.2" cy="996.2" r="3"/>
<circle class="st15" cx="-277.1" cy="1013.5" r="3"/>
<circle class="st15" cx="-305.7" cy="1030.9" r="3"/>
<circle class="st15" cx="-337.8" cy="1024.3" r="3"/>
<circle class="st15" cx="-370.4" cy="1005.4" r="3"/>
<circle class="st15" cx="-397.7" cy="990.3" r="3"/>
<circle class="st15" cx="-460.1" cy="955.5" r="3"/>
<circle class="st15" cx="-492.8" cy="938.6" r="3"/>
<circle class="st15" cx="-429.8" cy="970.9" r="3"/>
<circle class="st15" cx="-386.7" cy="460.4" r="3"/>
<circle class="st15" cx="-418.8" cy="474.7" r="3"/>
<circle class="st15" cx="-551.8" cy="904.2" r="3"/>
<circle class="st15" cx="-520" cy="921.1" r="3"/>
<circle class="st15" cx="-581.6" cy="887.9" r="3"/>
<circle class="st15" cx="-587.5" cy="855.5" r="3"/>
<circle class="st15" cx="-587.5" cy="823.3" r="3"/>
<circle class="st15" cx="-587.5" cy="786.4" r="3"/>
<circle class="st15" cx="-587.5" cy="754.1" r="3"/>
<circle class="st15" cx="-587.5" cy="717.4" r="3"/>
<circle class="st15" cx="-587.5" cy="684.8" r="3"/>
<circle class="st15" cx="-587.5" cy="648.9" r="3"/>
<circle class="st15" cx="-587.5" cy="613" r="3"/>
<circle class="st15" cx="-448.9" cy="487.8" r="3"/>
<circle class="st15" cx="-478.7" cy="502.8" r="3"/>
<circle class="st15" cx="-587.5" cy="577.4" r="3"/>
<circle class="st15" cx="-569.8" cy="552.5" r="3"/>
<circle class="st15" cx="-509.8" cy="521.1" r="3"/>
<circle class="st15" cx="-539.5" cy="536.3" r="3"/>
<g>
	
		<linearGradient id="SVGID_2_" gradientUnits="userSpaceOnUse" x1="-446.6031" y1="-359.0639" x2="-317.2734" y2="-359.0639" gradientTransform="matrix(1 0 0 -1 0 514)">
		<stop  offset="0" style="stop-color:#00FF99"/>
		<stop  offset="1" style="stop-color:#33CCFF"/>
	</linearGradient>
	<path class="st16" d="M-413.4,878.3c0.5,2.2-1.8,4.1-2.5,4.8c-3.6,2.8-7.5,5.6-11.2,8.4l-4.8,3.4l24.5-8.1l-0.2,2.6l15-5.5
		l-0.5,2.6l14.7-7.3l-0.5,3l9.6-6.7l3.1,2l-0.2,1.1l15.5-11.2l0.7,2.8c7.5-8.9,15.3-16.4,24.2-23.1l-5.8,0.6
		c-5.6,0.6-11.3,1-17.2,1.6c-1.6,0.2-3.4,0.2-5,0.4l-2.1,0.2l0,0c0,1.1-0.2,1.7-0.7,2.2c-0.9,1.1-2.3,1.3-3.2,1.3h-0.2
		c-2.3,0.2-4.6,0.4-6.8,0.6l2.9,2l-21.3,3.7l3.1,2.2l-18.4,6.4l2.5,1.5l-2.7,1.7c-0.5,0.2-0.7,0.5-0.9,0.7c-0.7,0.5-1.4,0.8-2.1,1.3
		c-1.4,0.8-3,1.5-4.6,2.4C-410.2,876.6-411.8,877.2-413.4,878.3C-413.4,878.1-413.4,878.3-413.4,878.3z"/>
	
		<linearGradient id="SVGID_3_" gradientUnits="userSpaceOnUse" x1="-351.1618" y1="-187.6798" x2="-79.884" y2="-187.6798" gradientTransform="matrix(1 0 0 -1 0 514)">
		<stop  offset="0" style="stop-color:#00FF99"/>
		<stop  offset="1" style="stop-color:#33CCFF"/>
	</linearGradient>
	<path class="st17" d="M-231.2,887.6l26.6,9.1l-0.5-0.2c-4.7-3.5-9.4-7.1-13.9-10.8c-0.2-0.2-0.5-0.5-0.7-0.5
		c-1.4-0.9-3.6-2.4-3.3-5.5c-0.2,0-0.2-0.2-0.5-0.2c-1.6-0.9-3.3-1.7-4.9-2.7c-1.1-0.7-2.3-1.1-3.6-1.7c-0.7-0.5-1.4-0.7-2.1-1.3
		l-4-2.7l2.7-1.5l-19.1-6.7l3.9-2.1l-20.3-4.1l2.7-2.1h-0.2c-2.1-0.2-4.3-0.2-6.3-0.5h-1.4c-2.5-0.2-3.8-1.1-4-3.1h-0.2
		c-4.1-0.5-8.4-0.9-12.6-1.4l-4.1-0.5c-3.4-0.5-7-0.7-10.6-1.4l0.5-4.3c13.6-0.1,27.8,0.9,45.4,3.4l-0.5-0.5l1.4-3.5l19.8,3.9
		l-2.2-4.2l21.4,2.6l-2.9-4l19.2,2.7l-4-4.4l23.1-1.1l-4-2.9l4.3-1.3c4.1-1.3,7.9-1.9,11.8-2.3c2.1-0.2,3.9-0.6,5.8-0.8l-2.7-1.7
		l0.2-3.7l16.3-2.3l-4.7-3.7l17.9-2.9l-4.3-2.7l15.2-3.6l-6.3-3.6l18.5-2.9l-2.5-2.2l5.5-1.5c1.1-0.5,2.3-0.6,3.4-0.8
		c3.4-0.6,6.8-1.4,10.2-2.1c1.1-0.2,2.1-0.5,3.2-0.6l-16.7-2.3l1.1-2.8l-18.3,1.8l2.1-4.1l-14.3,1.4c-0.9,0-2.7,0.2-4-0.9
		c-0.7-0.5-0.9-1.3-1.1-2.2l-21.5,4.2l1.1-4.6l-19.5,7.1l1.4-4.8l-17.7,8.6v-4.6l-14.7,8.4l-0.9-3l-15.5,12.1l0.7-5.5l-14.8,10.8
		l-0.8-4.8l-16.9,13.6l0.3-5l-43.2,24l-1.4-2l-1.1,1.7l-1.1-4.8c-0.5-1.7,0-2.8,0.2-3.7l3-8.5c2.8-7.6,5.5-15,8.1-22.6
		c0-0.2,0.2-0.5,0.2-0.8c0.2-0.5,0.7-1.5,0.5-2c-0.9-3.3,0.3-5.8,1.2-8.1c0.2-0.5,0.5-0.8,0.7-1.5c0.9-2.6,1.8-5,3-7.4l0.7-1.7
		c-1.4-1.3-1.6-2.7-0.8-5c0.7-2,1.4-4.1,2.1-6.1c0.5-1.5,1.1-3,1.6-4.6c-0.5-0.5-0.7-0.9-0.9-1.3c-0.7-1.5,0-2.8,0.5-3.5
		c0-0.2,0.2-0.2,0.2-0.5c0.7-2,1.4-3.9,2.3-5.6c0.5-1.1,0.9-2.2,1.4-3.3c0.5-1.1,0.7-2,1.1-3l-2.1-0.2l5.8-18.7
		c-0.5-0.2-0.7-0.5-0.9-0.7c-1.1-1.3-0.9-3-0.7-3.9c0.2-1.3,0.5-2.8,0.7-4.1c0.2-1.3,0.5-2.6,0.7-3.9c0.5-2.6,0.9-5.5,1.4-8.3v-0.2
		l-3.9,1.1l4.9-21.7l-3-0.2l3.1-19.8c-0.9,0-1.6-0.2-2.3-0.9c-1.1-1.1-1.1-2.4-0.8-4.3c0-0.7,0.2-1.3,0.2-2l1-7.4l-3.2,1.1l0.2-4.1
		c0-0.5,0-0.8,0-1.3l0.5-4.8c0.2-2.6,0.7-5.2,1-8.1v-0.2l0,0l-3.4,1.1l2.2-19.1l-5.5,1.5l2.2-19.6c-0.2-0.2-0.7-0.2-0.9-0.5
		c-1.4-1.1-1.4-2.8-1.5-3.7c0-3.7-0.2-7.6-0.2-11.3c-1.8-0.2-3.1-1.5-3.6-4.2v-0.5c-0.2-1.7-0.7-3.3-0.8-5c-0.2-1.3-0.5-2.6-0.7-3.9
		c0-0.2-0.2-0.5-0.2-0.7c-3.4-1.1-3.3-4.2-3.3-5.7c0-0.5,0-0.7,0-1.1c-0.2-1.3-0.2-2.6-0.5-4c-0.2-1.5-0.2-2.8-0.5-4.2
		c-0.5,0-0.9-0.2-1.4-0.5c-1.4-0.7-1.6-2.2-1.6-2.8v-0.2c-0.5-2-0.8-4.2-1.3-6.1c-0.5-1.7-0.9-3.7-1.1-5.5c0-0.2-0.2-0.5-0.2-0.8
		c-2.5-1.1-2.9-3.5-3.3-5c0-0.2,0-0.5-0.2-0.7c-0.5-2-0.8-4.2-1.1-6.1l-0.2-1.5c-0.2-1.7-0.7-3.5-0.8-5.2c-0.9,4.6-1.9,8.9-2.8,13.5
		c-0.5,2.6-1.6,3.9-3,4.3c-0.2,0-0.2,0-0.2,0c0,0.2-0.2,0.7-0.2,0.8v0.5c-0.2,1.5-0.7,3.3-0.9,4.8c-0.2,2-0.7,3.7-1.1,5.6
		c0,0.5-0.9,3.9-3.4,3.9l0,0l0,0c0,0.2,0,0.5,0,0.7s0,0.5,0,0.7c-0.2,1.5-0.2,2.8-0.5,4.3c-0.2,2-0.5,3.9-0.8,5.6
		c0,0-0.7,4.3-3.4,4.3l0,0c0,0.2,0,0.2,0,0.5c0,0.2,0,0.5,0,0.7c-0.2,1.7-0.5,3.3-0.7,5c-0.2,1.3-0.5,2.4-0.5,3.7
		c-0.2,1.1-0.5,2.8-2.1,3.7c-0.2,0.2-0.7,0.2-0.9,0.5v0.2c0,1.3-0.2,2.6-0.2,3.9c0,2.2-0.2,4.1-0.3,6.3c0,1.3-0.2,3.3-1.8,4.3
		c-0.2,0.2-0.7,0.5-1.1,0.6l1.7,19.8l-5.2-1.6l2.1,20.1l-3.3-1.5l1.7,18.3l-3-1.4l1.4,15.3l-3.8-0.4l3.2,22.7l-3.1-1.5l4.1,21
		l-3.8-1.4l0.8,4.8c0.7,4,1.3,7.7,2,11.5c0.2,1.3,0.2,3.5-1.4,4.3l0,0c0,0.2,0.2,0.5,0.2,0.7s0.2,0.7,0.2,0.8
		c0.9,3.3,1.7,6.3,2.9,9.4l1.5,5c0.2,0.5,0.2,0.8,0,1.1v2l-1.1,0.2l6.2,17l-2.3,0.4c0,0.2,0.2,0.5,0.2,0.7c0.7,2.4,1.3,4.6,2,7
		l0.9,3c0.2,1.1,0.7,2.6-0.2,4c-0.2,0.2-0.5,0.5-0.7,0.7c0.2,0.5,0.5,0.9,0.7,1.3c0.9,2.2,2,4.4,2.9,6.5c1.7,3.5,2.4,7.2,3.1,10.7
		c0.2,1.1,0.5,2,0.7,3c1.5,6.3,3.5,12.7,5.7,18.8c0.9,2.7,1.7,5.2,2.7,7.9c0.5,1.5,0.9,3,1.3,4.6l2.4,7.9l2.3,1.3
		c12.2,7.1,21.3,16.9,29.4,27l1.1-2.6l14.4,10.3l0,0l-1.3-5.7l14.1,9.7l-0.2-3l14,7.3l-0.5-1.7l3.8,0.9c3.6,0.9,7,2.4,10.3,3.8
		c0.2,0,0.2,0,0.5,0.2L-231.2,887.6z"/>
	
		<linearGradient id="SVGID_4_" gradientUnits="userSpaceOnUse" x1="-550.5093" y1="-302.3473" x2="-314.4634" y2="-302.3473" gradientTransform="matrix(1 0 0 -1 0 514)">
		<stop  offset="0" style="stop-color:#00FF99"/>
		<stop  offset="1" style="stop-color:#33CCFF"/>
	</linearGradient>
	<path class="st18" d="M-332.4,842.6c2.1,0,4.1,0,6.3,0.3l0.2,4.2c1.4-1.1,2.7-2,4.1-3l2.7-2l-2.9-1.7c-0.5-0.2-0.9-0.5-1.1-0.9
		l-1.6,2.6c-8.8-4.4-17.3-9.3-25.7-13.9c-4.9-2.9-10.1-5.8-15.3-8.6l-2.7,2.4l-13.5-11.4l-0.7,4.6l-15.7-11.3v4.6l-13.7-11v3.3
		l-15.7-9l-1.4,3.9l-16.6-8.7l0.4,4.8l-18-6.9l1.1,3.5l-3.4-0.2c-0.5,0-0.7,0-1.1,0c-0.9,0-1.6,0-2.3-0.2c-1.8-0.5-3.6-0.7-5.4-1.1
		c-3-0.7-6.1-1.4-9-1.8c-0.2,0.8-0.7,1.5-1.1,2c-1.4,1.1-3.2,1.1-4.3,0.8c-2.1-0.2-3.9-0.5-5.8-0.7c-2.5-0.2-4.9-0.5-7.7-0.7
		c-0.2,0-0.5,0-0.5,0l1.7,3.7l-4.1-0.2l-14.1-1.4l1.1,2.8l-16.3,1.9c2.3,0.5,4.3,1.1,6.5,1.6c2.7,0.7,5.2,1.1,7.9,1.8l9.5,2.3
		l-4.1,2.4c1.6,0.2,3.2,0.5,4.9,0.7c2.3,0.2,4.7,0.7,7,1.1l5.8,1.4l-5.9,3l15.3,4l-4.6,2.6l13.5,2.3l1.1,3.5l-1.6,0.8l15.6,2.3
		l0.9,3.5l-3,2.1l18.1,3.4l1.1,3.5l-1.4,0.8l23.2,1.5l-4.1,4.1l19.7-2.7l-3.6,4.3l22.4-2.9l-3.2,4.6l25.4-4.4l-4.6,4.6
		c3.6-0.2,7.2-0.6,10.6-1C-351.9,843.5-342.1,842.5-332.4,842.6z"/>
	
		<linearGradient id="SVGID_5_" gradientUnits="userSpaceOnUse" x1="-316.73" y1="-213.5836" x2="-106.8249" y2="-213.5836" gradientTransform="matrix(1 0 0 -1 0 514)">
		<stop  offset="0" style="stop-color:#00FF99"/>
		<stop  offset="1" style="stop-color:#33CCFF"/>
	</linearGradient>
	<path class="st19" d="M-289.1,798.9c-0.7,2-1.6,3.9-2.3,5.6c-1.4,3.3-2.7,6.3-4.4,9.3c-1.6,3.3-3.2,6.3-4.8,9.1
		c-2.1,3.7-3.6,6.3-5.2,8.9c-1.1,1.5-2.3,3.3-3.2,4.8l32.7-21.5l-2.3-2.2l12.9-6.7l-0.9-0.5l1.4-3.5l15.4-6.6l-1.8-2.4l3.9-1.3
		c0.5-0.2,0.9-0.2,1.1-0.5l1.8-0.6c3.4-1.3,6.8-2.6,10-3.9c-0.5-0.9-0.7-1.7-0.5-2.4c0.5-1.7,2.1-2.4,3.2-3c1.8-0.8,3.9-1.7,5.7-2.6
		c1.6-0.6,3.2-1.5,4.8-2.1l-3.6-1.7l5.5-2.8c1.1-0.6,2.3-1.1,3.4-1.7c0.5-0.2,1.1-0.6,1.8-0.8c0.9-0.5,2.1-0.8,2.3-1.5
		c1.6-2.6,3.9-3.9,5.9-4.9c0.5-0.2,0.9-0.5,1.4-0.6c1.6-0.8,3.2-1.7,4.8-2.6c0.2-0.2,0.5-0.2,0.7-0.5l-1.1-3.3l16.3-9.3l-2.7-1.3
		l10.3-7.5l-4.7-1.1l14.8-11.8l-3-0.9l13.2-13.4l-3.3-2l11.2-11.2l-6.1-0.7l10.7-12.3l-4.9-0.9l11.4-14.5l-5.4-0.5l10.5-14.7l-3-1.1
		l1.6-2.4c0.2-0.5,0.5-0.7,0.7-1.1c0.5-0.8,1.1-1.7,1.6-2.4c1.1-1.3,2.5-2.8,3.9-4.1c0.9-0.8,1.8-2,2.5-2.8c0.2-0.2,0.5-0.5,0.7-0.7
		c-0.2-0.2-0.5-0.2-0.7-0.5c-0.7-0.5-0.9-1.1-0.9-1.3l-0.5-1.3l10.3-16.3l-20.4,14.9l-0.9-2.7l-14.4,13.8l-1.1-3.5l-13.7,12.3
		l-1.6-2.7c-0.2,0.2-0.5,0.5-0.7,0.8c-1.1,1.3-2.3,2.6-3.6,4.1c-1.6,1.7-3,3.5-4.6,4.9c-1.1,1.3-3,2.8-4.8,1.9l0,0
		c0,0.2-0.2,0.2-0.2,0.5c-0.2,0.2-0.5,0.7-0.7,0.8c-1.4,1.5-2.7,3.3-4.1,4.8c-0.7,0.8-1.6,2-2.3,2.8c-0.7,0.7-1.1,1.3-2.1,2.1
		l-5.2,5.6v-2.4l-7.7,11.4l-1.8-2.2l-10.3,16.9l-1.5-5.2c-0.9,1.5-1.6,3-2.5,4.3c-1.1,2-2.1,3.9-3.2,6.1l-3.9,8.1l-2-5.9l-9.7,18.5
		l-2.4-3.3l-12.6,22.8l-1.6-2.7l-3.6,6.5c-1.6,2.8-3.2,5.6-4.8,8.7c-0.5,0.7-1.1,2.2-3,2.1h-0.2l-8.5,19.1l-3.6-0.9l-7.6,20
		L-289.1,798.9z"/>
	
		<linearGradient id="SVGID_6_" gradientUnits="userSpaceOnUse" x1="-523.4904" y1="-212.2882" x2="-316.5122" y2="-212.2882" gradientTransform="matrix(1 0 0 -1 0 514)">
		<stop  offset="0" style="stop-color:#00FF99"/>
		<stop  offset="1" style="stop-color:#33CCFF"/>
	</linearGradient>
	<path class="st20" d="M-357.9,814.5l31.7,21.6c-7.1-10.3-13.1-22.1-18.2-35.9c-0.2-0.5-0.5-1.1-0.7-1.5l-1.8,3.9l-7.5-21l-2.1,3.5
		l-2.7-5.7c-0.5-1.1-0.9-2-1.4-2.8l-2.2-5c-1.4-2.8-2.4-5.9-3.8-8.7c0,0,0-0.2-0.2-0.2c-0.5,0-0.9,0-1.4-0.2
		c-1.4-0.5-1.8-1.7-2.1-2.4v-0.2c-1.6-2.8-3.1-5.7-4.7-8.5c-0.9-1.7-1.7-3.5-2.7-5.2l-1.6,2.6l-12-23.2l-2.3,3.5l-9.6-18.8l-1.8,5.2
		l-2.4-4.4c-1.4-2.4-2.4-4.8-3.6-7c-1.1-2.2-2-4.6-3.3-6.5l-1.1,4.3l-2.7-3.5c-1.8-2.4-3.1-4.8-4.5-7.2c-0.9-1.5-1.7-3-2.7-4.6
		l-1.1,3.3l-10.3-15.3l-1.6,1.7l-11.2-13.6l-1.6,1.7l-11.8-13.8l-1.4,3l-13.9-13l-1.6,3.3l-3.3-3.1c-0.7-0.7-1.6-1.3-2.3-2
		c-1.1-1.1-2.3-2.2-3.3-3.5c-1.6-1.7-3.1-3.3-4.7-5l-0.2-0.2c-3.2,1.5-5.4-0.5-6.5-1.6c-0.2-0.2-0.5-0.5-0.7-0.5
		c-4.3-3.1-8.3-6.4-12.6-9.7l-0.9-0.7l11.4,18.2l-3,1.3c-0.2,0-0.5,0.2-0.7,0.2c0.5,0.7,1.1,1.3,1.6,2c0.5,0.5,0.9,1.1,1.4,1.5
		c1.6,1.7,3.1,3.5,4.7,5.2l3.8,4.4l-3.6,1.5l9,13.4l-4.3,1.7c1.1,1.5,2.2,3,3.3,4.6c2.1,2.4,4,5,5.6,8.1l1.1,2.4l-3.4,0.8l10.3,13.4
		l-6.3-0.1l11.2,11.4l-3.9,1.9c0,0.2,0.2,0.2,0.2,0.5c0.9,0.9,1.8,1.7,2.7,2.9c1.8,1.7,3.3,3.5,5.2,5.2c0.5,0.5,2.4,3.5,0.8,5.2
		c0,0,0,0,0.2,0.2l0.5,0.5c1.4,1.1,2.9,2.4,4.5,3.5c1.6,1.1,2.9,2.4,4.5,3.5c0.7,0.7,1.1,1.1,1.8,2c0.2,0.2,0.5,0.7,0.7,0.9l2.4,2.9
		l-3.6,0.6l9.9,7.7l-2.3,1.3l19.1,11.7l-4.6,1.3c1.4,0.7,2.5,1.5,3.8,2.2c1.8,1.1,3.6,2,5.4,3.1l0.2,0.2c0.9,0.5,2.3,1.3,2.4,2.7
		c0.2,0.7,0.7,1.1,2.1,1.7c0.5,0.2,0.7,0.5,1.1,0.7c0.9,0.5,1.8,0.9,2.5,1.3c0.9,0.5,1.8,0.9,2.7,1.5c0.7,0.5,1.1,0.9,1.6,1.3
		c0.2,0.2,0.5,0.5,0.7,0.7l3.3,2.9l-3,0.6c1.1,0.5,2.3,1.1,3.3,1.5c2.1,0.9,4,2,6.1,2.9c1.4,0.7,2.3,2.4,2.2,3.3
		c0.2,0.8,0,1.5-0.5,2h0.2c3,1.4,5.8,2.4,8.8,3.6l4.5,1.7c0.9,0.5,1.4,1.1,1.4,1.3l0.7,1.3l-0.7,0.8l18,8l-2.7,2.4l13.5,7.3
		L-357.9,814.5z"/>
</g>
<path class="st21" d="M341.9,305.6c0,48.1-80.6,176.9-87,176.9c-6.4,0-87-128.8-87-176.9s39-87,87.1-87S341.9,257.5,341.9,305.6z
	 M254.9,247.3c-30.9,0-56,25.1-56,56s25.1,56,56,56s56-25.1,56-56S285.8,247.3,254.9,247.3z"/>
<g>
	<path class="st15" d="M203.8,477.2c0.2,1.2-1,2.2-1.4,2.6c-2,1.5-4.1,3.1-6.1,4.6l-2.6,1.9l13.3-4.4l-0.1,1.4l8.1-3l-0.2,1.4l8-4
		l-0.2,1.7l5.2-3.6l1.7,1.1l-0.1,0.6l8.4-6.1l0.4,1.5c4.1-4.8,8.3-8.9,13.1-12.6l-3.2,0.3c-3.1,0.3-6.2,0.5-9.3,0.9
		c-0.9,0.1-1.9,0.1-2.7,0.2l-1.1,0.1l0,0c0,0.6-0.1,0.9-0.4,1.2c-0.5,0.6-1.2,0.7-1.7,0.7h-0.1c-1.2,0.1-2.5,0.2-3.7,0.3l1.6,1.1
		l-11.6,2l1.7,1.2l-10,3.5l1.4,0.8l-1.5,0.9c-0.2,0.1-0.4,0.2-0.5,0.4c-0.4,0.2-0.7,0.5-1.1,0.7c-0.7,0.5-1.6,0.8-2.5,1.3
		C205.5,476.3,204.7,476.6,203.8,477.2C203.8,477,203.8,477.2,203.8,477.2z"/>
	<path class="st15" d="M302.8,482.2l14.5,5l-0.2-0.1c-2.6-1.9-5.1-3.8-7.6-5.9c-0.1-0.1-0.2-0.2-0.4-0.2c-0.7-0.5-1.9-1.3-1.8-3
		c-0.1,0-0.1-0.1-0.2-0.1c-0.9-0.5-1.8-0.9-2.7-1.4c-0.6-0.4-1.2-0.6-1.9-0.9c-0.4-0.2-0.7-0.4-1.1-0.7l-2.2-1.4l1.5-0.8l-10.4-3.6
		l2.1-1.2l-11-2.2l1.5-1.2h-0.1c-1.1-0.1-2.4-0.1-3.4-0.2h-0.7c-1.4-0.1-2.1-0.6-2.2-1.7h-0.1c-2.2-0.2-4.5-0.5-6.9-0.8l-2.2-0.2
		c-1.9-0.2-3.8-0.4-5.8-0.7l0.2-2.4c7.4,0,15.1,0.5,24.7,1.9l-0.2-0.2l0.7-1.9l10.8,2.1l-1.2-2.3l11.6,1.4l-1.6-2.1l10.4,1.5
		l-2.2-2.4l12.6-0.6L325,454l2.4-0.7c2.2-0.7,4.3-1,6.4-1.2c1.1-0.1,2.1-0.3,3.2-0.5l-1.5-0.9l0.1-2l8.8-1.2l-2.6-2l9.7-1.6
		l-2.3-1.4l8.3-1.9l-3.4-1.9l10.1-1.6l-1.4-1.2l3-0.8c0.6-0.2,1.2-0.3,1.9-0.5c1.9-0.3,3.7-0.8,5.5-1.2c0.6-0.1,1.1-0.2,1.7-0.3
		l-9.1-1.2l0.6-1.5l-10,1l1.1-2.2l-7.8,0.8c-0.5,0-1.5,0.1-2.2-0.5c-0.4-0.2-0.5-0.7-0.6-1.2l-11.7,2.3l0.6-2.5l-10.6,3.8l0.7-2.6
		l-9.6,4.7v-2.5l-8,4.5l-0.5-1.7l-8.4,6.6l0.4-3l-8.1,5.9l-0.5-2.6l-9.2,7.4l0.2-2.7l-23.5,13l-0.7-1.1l-0.6,0.9l-0.6-2.6
		c-0.2-0.9,0-1.5,0.1-2l1.7-4.6c1.5-4.1,3-8.1,4.4-12.3c0-0.1,0.1-0.2,0.1-0.5c0.1-0.2,0.4-0.8,0.2-1.1c-0.5-1.8,0.2-3.2,0.7-4.4
		c0.1-0.2,0.2-0.5,0.4-0.8c0.5-1.4,1-2.7,1.6-4l0.4-0.9c-0.7-0.7-0.9-1.4-0.5-2.7c0.4-1.1,0.7-2.2,1.1-3.3c0.2-0.8,0.6-1.7,0.9-2.5
		c-0.2-0.2-0.4-0.5-0.5-0.7c-0.4-0.8,0-1.5,0.2-1.9c0-0.1,0.1-0.1,0.1-0.2c0.4-1.1,0.7-2.1,1.2-3.1c0.2-0.6,0.5-1.2,0.7-1.8
		c0.2-0.6,0.4-1.1,0.6-1.7l-1.1-0.1l3.1-10.2c-0.2-0.1-0.4-0.2-0.5-0.4c-0.6-0.7-0.5-1.7-0.4-2.1c0.1-0.7,0.2-1.5,0.4-2.2
		s0.2-1.4,0.4-2.1c0.2-1.4,0.5-3,0.8-4.5v-0.1l-2.1,0.6l2.7-11.8l-1.6-0.1l1.7-10.8c-0.5,0-0.9-0.1-1.2-0.5
		c-0.6-0.6-0.6-1.3-0.5-2.4c0-0.4,0.1-0.7,0.1-1.1l0.5-4l-1.7,0.6l0.1-2.2c0-0.2,0-0.5,0-0.7l0.2-2.6c0.1-1.4,0.4-2.8,0.5-4.4v-0.1
		l0,0l-1.9,0.6l1.2-10.4l-3,0.8l1.2-10.7c-0.1-0.1-0.4-0.1-0.5-0.2c-0.7-0.6-0.7-1.5-0.8-2c0-2-0.1-4.1-0.1-6.2
		c-1-0.1-1.7-0.8-1.9-2.3v-0.2c-0.1-0.9-0.4-1.8-0.5-2.7c-0.1-0.7-0.2-1.4-0.4-2.1c0-0.1-0.1-0.2-0.1-0.4c-1.9-0.6-1.8-2.3-1.8-3.1
		c0-0.2,0-0.4,0-0.6c-0.1-0.7-0.1-1.4-0.2-2.1c-0.1-0.8-0.1-1.5-0.2-2.3c-0.2,0-0.5-0.1-0.7-0.2c-0.7-0.4-0.9-1.2-0.9-1.5v-0.1
		c-0.2-1.1-0.5-2.3-0.7-3.3c-0.2-0.9-0.5-2-0.6-3c0-0.1-0.1-0.2-0.1-0.5c-1.4-0.6-1.6-1.9-1.8-2.7c0-0.1,0-0.2-0.1-0.4
		c-0.2-1.1-0.5-2.3-0.6-3.3l-0.1-0.8c-0.1-0.9-0.4-1.9-0.5-2.8c-0.5,2.5-1,4.8-1.5,7.3c-0.2,1.4-0.9,2.1-1.6,2.4c-0.1,0-0.1,0-0.1,0
		c0,0.1-0.1,0.4-0.1,0.5v0.2c-0.1,0.8-0.4,1.8-0.5,2.6c-0.1,1.1-0.4,2-0.6,3.1c0,0.2-0.5,2.1-1.9,2.1l0,0l0,0c0,0.1,0,0.2,0,0.4
		s0,0.2,0,0.4c-0.1,0.8-0.1,1.5-0.2,2.4c-0.1,1.1-0.2,2.1-0.4,3.1c0,0-0.4,2.4-1.9,2.4l0,0c0,0.1,0,0.1,0,0.2c0,0.1,0,0.2,0,0.4
		c-0.1,0.9-0.2,1.8-0.4,2.7c-0.1,0.7-0.2,1.3-0.2,2c-0.1,0.6-0.2,1.5-1.1,2c-0.1,0.1-0.4,0.1-0.5,0.2v0.1c0,0.7-0.1,1.4-0.1,2.1
		c0,1.2-0.1,2.2-0.2,3.4c0,0.7-0.1,1.8-1,2.4c-0.1,0.1-0.4,0.2-0.6,0.3l0.9,10.8l-2.8-0.9l1.2,10.9l-1.8-0.8l0.9,10l-1.6-0.7
		l0.8,8.3l-2-0.4l1.7,12.3l-1.7-0.8l2.2,11.4l-2.1-0.7l0.5,2.6c0.4,2.1,0.7,4.2,1.1,6.3c0.1,0.7,0.1,1.9-0.7,2.4l0,0
		c0,0.1,0.1,0.2,0.1,0.4s0.1,0.4,0.1,0.5c0.5,1.8,0.9,3.4,1.6,5.1l0.8,2.7c0.1,0.2,0.1,0.5,0,0.6v1.1l-0.6,0.1l3.4,9.2l-1.2,0.2
		c0,0.1,0.1,0.2,0.1,0.4c0.4,1.3,0.7,2.5,1.1,3.8l0.5,1.7c0.1,0.6,0.4,1.4-0.1,2.1c-0.1,0.1-0.2,0.2-0.4,0.4
		c0.1,0.2,0.2,0.5,0.4,0.7c0.5,1.2,1.1,2.4,1.6,3.6c0.9,1.9,1.3,3.9,1.7,5.8c0.1,0.6,0.2,1.1,0.4,1.7c0.8,3.4,1.9,6.9,3.1,10.2
		c0.5,1.4,0.9,2.8,1.4,4.3c0.2,0.8,0.5,1.7,0.7,2.5l1.3,4.3l1.2,0.7c6.6,3.8,11.6,9.2,16,14.7l0.6-1.4l7.8,5.6l0,0l-0.7-3.1l7.7,5.3
		l-0.1-1.7l7.6,4l-0.2-0.9l2.1,0.5c2,0.5,3.8,1.3,5.6,2.1c0.1,0,0.1,0,0.2,0.1L302.8,482.2z"/>
	<path class="st15" d="M247.8,457.8c1.1,0,2.2,0,3.4,0.2l0.1,2.3c0.7-0.6,1.5-1.1,2.2-1.7l1.5-1.1l-1.6-0.9
		c-0.2-0.1-0.5-0.2-0.6-0.5l-0.9,1.4c-4.8-2.4-9.4-5-14-7.6c-2.7-1.6-5.5-3.1-8.3-4.7l-1.5,1.3l-7.3-6.1l-0.4,2.5l-8.5-6.1v2.5
		l-7.4-6v1.8l-8.5-4.9l-0.7,2.1l-9-4.7l0.2,2.6l-9.8-3.8l0.6,1.9l-1.9-0.1c-0.2,0-0.4,0-0.6,0c-0.5,0-0.9,0-1.2-0.1
		c-1-0.2-2-0.4-2.9-0.6c-1.6-0.4-3.3-0.7-4.9-1c-0.1,0.5-0.4,0.8-0.6,1.1c-0.7,0.6-1.7,0.6-2.4,0.5c-1.1-0.1-2.1-0.2-3.2-0.4
		c-1.4-0.1-2.7-0.2-4.2-0.4c-0.1,0-0.2,0-0.2,0l0.9,2l-2.2-0.1l-7.7-0.8l0.6,1.5l-8.9,1c1.2,0.2,2.3,0.6,3.6,0.9
		c1.5,0.4,2.8,0.6,4.3,1l5.2,1.2l-2.2,1.3c0.9,0.1,1.7,0.2,2.7,0.4c1.2,0.1,2.6,0.4,3.8,0.6l3.2,0.7l-3.2,1.7l8.3,2.2l-2.5,1.4
		l7.3,1.2l0.6,1.9l-0.9,0.5l8.5,1.2l0.5,1.9l-1.6,1.2l9.8,1.9l0.6,1.9l-0.7,0.5l12.6,0.8l-2.2,2.2l10.7-1.4l-2,2.4l12.2-1.6
		l-1.7,2.5l13.8-2.4l-2.5,2.5c2-0.1,3.9-0.3,5.8-0.5C237.2,458.3,242.5,457.7,247.8,457.8z"/>
	<path class="st15" d="M271.3,434c-0.4,1.1-0.9,2.1-1.2,3.1c-0.7,1.8-1.5,3.4-2.4,5.1c-0.9,1.8-1.7,3.4-2.6,5c-1.1,2-2,3.4-2.8,4.8
		c-0.6,0.8-1.2,1.8-1.7,2.6l17.8-11.7l-1.2-1.2l7-3.6l-0.5-0.2l0.7-1.9l8.4-3.6l-1-1.3l2.1-0.7c0.2-0.1,0.5-0.1,0.6-0.2l1-0.3
		c1.9-0.7,3.7-1.4,5.4-2.1c-0.2-0.5-0.4-0.9-0.2-1.3c0.2-0.9,1.1-1.3,1.7-1.7c1-0.5,2.1-0.9,3.1-1.4c0.9-0.3,1.7-0.8,2.6-1.2
		l-1.9-0.9l3-1.5c0.6-0.3,1.2-0.6,1.9-0.9c0.2-0.1,0.6-0.3,1-0.5c0.5-0.2,1.1-0.5,1.2-0.8c0.9-1.4,2.1-2.1,3.2-2.7
		c0.2-0.1,0.5-0.2,0.7-0.3c0.9-0.5,1.7-0.9,2.6-1.4c0.1-0.1,0.2-0.1,0.4-0.2l-0.6-1.8l8.9-5l-1.5-0.7l5.6-4.1l-2.6-0.6l8.1-6.4
		l-1.6-0.5l7.2-7.3l-1.8-1.1l6.1-6.1l-3.3-0.4l5.8-6.7l-2.7-0.5l6.2-7.9l-2.9-0.2l5.7-8l-1.6-0.6l0.9-1.3c0.1-0.2,0.2-0.4,0.4-0.6
		c0.2-0.5,0.6-0.9,0.9-1.3c0.6-0.7,1.4-1.5,2.1-2.2c0.5-0.5,1-1.1,1.4-1.5c0.1-0.1,0.2-0.2,0.4-0.4c-0.1-0.1-0.2-0.1-0.4-0.2
		c-0.4-0.2-0.5-0.6-0.5-0.7l-0.2-0.7l5.6-8.8l-11.1,8.1l-0.5-1.4l-7.8,7.5l-0.6-1.9l-7.4,6.7l-0.9-1.4c-0.1,0.1-0.2,0.2-0.4,0.5
		c-0.6,0.7-1.2,1.4-2,2.2c-0.9,0.9-1.6,1.9-2.5,2.7c-0.6,0.7-1.6,1.5-2.6,1l0,0c0,0.1-0.1,0.1-0.1,0.2c-0.1,0.1-0.2,0.4-0.4,0.5
		c-0.7,0.8-1.5,1.8-2.2,2.6c-0.4,0.5-0.9,1.1-1.2,1.5c-0.4,0.4-0.6,0.7-1.1,1.2l-2.8,3.1v-1.3l-4.2,6.2l-1-1.2l-5.6,9.2l-0.8-2.8
		c-0.5,0.8-0.9,1.7-1.4,2.4c-0.6,1.1-1.1,2.1-1.7,3.3l-2.1,4.4l-1.1-3.2l-5.3,10l-1.3-1.8l-6.9,12.4l-0.9-1.4l-2,3.6
		c-0.9,1.5-1.7,3.1-2.6,4.7c-0.2,0.4-0.6,1.2-1.6,1.2h-0.1l-4.6,10.4l-2-0.5l-4.1,10.9L271.3,434z"/>
	<path class="st15" d="M233.9,442.5l17.2,11.7c-3.9-5.6-7.1-12-9.9-19.5c-0.1-0.2-0.2-0.6-0.4-0.8l-1,2.1l-4.1-11.4l-1.1,1.9
		l-1.4-3.1c-0.2-0.6-0.5-1.1-0.7-1.5l-1.2-2.7c-0.7-1.5-1.3-3.2-2.1-4.7c0,0,0-0.1-0.1-0.1c-0.2,0-0.5,0-0.7-0.1
		c-0.7-0.2-1-0.9-1.1-1.3v-0.1c-0.9-1.5-1.7-3.1-2.6-4.6c-0.5-0.9-0.9-1.9-1.4-2.8l-0.9,1.4l-6.5-12.6l-1.2,1.9l-5.2-10.2l-1,2.8
		l-1.3-2.4c-0.7-1.3-1.3-2.6-1.9-3.8s-1.1-2.5-1.8-3.6l-0.6,2.4l-1.4-1.9c-1-1.3-1.7-2.6-2.4-3.9c-0.5-0.8-0.9-1.7-1.4-2.5l-0.6,1.8
		l-5.6-8.3l-0.9,0.9l-6.1-7.4l-0.9,0.9l-6.4-7.5l-0.7,1.7l-7.6-7.1l-0.9,1.8l-1.8-1.7c-0.4-0.4-0.9-0.7-1.2-1.1
		c-0.6-0.6-1.2-1.2-1.8-1.9c-0.9-0.9-1.7-1.8-2.6-2.7l-0.1-0.1c-1.7,0.8-2.9-0.2-3.6-0.9c-0.1-0.1-0.2-0.2-0.4-0.2
		c-2.3-1.7-4.5-3.5-6.9-5.3l-0.5-0.4l6.2,9.9l-1.6,0.7c-0.1,0-0.2,0.1-0.4,0.1c0.2,0.4,0.6,0.7,0.9,1.1c0.2,0.2,0.5,0.6,0.7,0.8
		c0.9,0.9,1.7,1.9,2.6,2.8l2.1,2.4l-2,0.8l4.9,7.3l-2.4,0.9c0.6,0.8,1.2,1.7,1.8,2.5c1.1,1.3,2.2,2.7,3.1,4.4l0.6,1.3l-1.9,0.5
		l5.6,7.3l-3.4,0l6.1,6.2l-2.1,1c0,0.1,0.1,0.1,0.1,0.2c0.5,0.5,1,0.9,1.4,1.6c1,0.9,1.8,1.9,2.8,2.8c0.2,0.2,1.3,1.9,0.5,2.8
		c0,0,0,0,0.1,0.1l0.2,0.2c0.7,0.6,1.6,1.3,2.4,1.9c0.9,0.6,1.6,1.3,2.4,1.9c0.4,0.4,0.6,0.6,1,1.1c0.1,0.1,0.2,0.4,0.4,0.5l1.3,1.6
		l-2,0.3l5.4,4.2l-1.2,0.7l10.4,6.4l-2.5,0.7c0.7,0.4,1.4,0.8,2.1,1.2c1,0.6,1.9,1.1,2.9,1.7l0.1,0.1c0.5,0.2,1.2,0.7,1.3,1.4
		c0.1,0.4,0.4,0.6,1.1,0.9c0.2,0.1,0.4,0.2,0.6,0.4c0.5,0.2,1,0.5,1.4,0.7c0.5,0.2,1,0.5,1.5,0.8c0.4,0.2,0.6,0.5,0.9,0.7
		c0.1,0.1,0.2,0.2,0.4,0.4l1.8,1.6l-1.6,0.3c0.6,0.2,1.2,0.6,1.8,0.8c1.1,0.5,2.2,1.1,3.3,1.6c0.7,0.4,1.2,1.3,1.2,1.8
		c0.1,0.5,0,0.8-0.2,1.1h0.1c1.6,0.7,3.2,1.3,4.8,1.9l2.4,0.9c0.5,0.2,0.7,0.6,0.7,0.7l0.4,0.7l-0.4,0.5l9.8,4.3l-1.5,1.3l7.3,4
		L233.9,442.5z"/>
</g>
</svg>
