<?xml version="1.0" encoding="utf-8"?>
<!-- Generator: Adobe Illustrator 23.0.4, SVG Export Plug-In . SVG Version: 6.00 Build 0)  -->
<svg version="1.1" id="Capa_1" xmlns="http://www.w3.org/2000/svg" xmlns:xlink="http://www.w3.org/1999/xlink" x="0px" y="0px"
	 viewBox="0 0 220 177" style="enable-background:new 0 0 220 177;" xml:space="preserve">
<style type="text/css">
	.st0{fill:#FFFFFF;}
	.st1{fill:url(#SVGID_1_);}
</style>
<path class="st0" d="M76.9,89.6c0,15-25.1,55.1-27.1,55.1s-27.1-40.1-27.1-55.1s12.2-27.1,27.1-27.1S76.9,74.6,76.9,89.6z
	 M49.8,71.4c-9.6,0-17.4,7.8-17.4,17.4s7.8,17.4,17.4,17.4s17.4-7.8,17.4-17.4S59.5,71.4,49.8,71.4z"/>
<path class="st0" d="M194.8,60.2c0,10.2-17,37.4-18.4,37.4c-1.4,0-18.4-27.2-18.4-37.4s8.2-18.4,18.4-18.4
	C186.6,41.8,194.8,50.1,194.8,60.2z M176.4,47.9c-6.5,0-11.8,5.3-11.8,11.8s5.3,11.8,11.8,11.8c6.5,0,11.8-5.3,11.8-11.8
	S182.9,47.9,176.4,47.9z"/>
<path class="st0" d="M140.9,44.4c0,6.9-11.6,25.4-12.5,25.4c-0.9,0-12.5-18.5-12.5-25.4s5.6-12.5,12.5-12.5
	C135.3,31.9,140.9,37.5,140.9,44.4z M128.4,36c-4.4,0-8,3.6-8,8s3.6,8,8,8c4.4,0,8-3.6,8-8S132.8,36,128.4,36z"/>
<linearGradient id="SVGID_1_" gradientUnits="userSpaceOnUse" x1="27.9168" y1="113.4722" x2="185.2829" y2="113.4722">
	<stop  offset="0" style="stop-color:#00FF99"/>
	<stop  offset="1" style="stop-color:#33CCFF"/>
</linearGradient>
<polygon class="st1" points="133.6,72 88,83.7 163.6,107.2 27.9,154.9 53,154.9 185.3,105.9 99.9,84.2 "/>
</svg>
