<?xml version="1.0" encoding="utf-8"?>
<!-- Generator: Adobe Illustrator 23.0.4, SVG Export Plug-In . SVG Version: 6.00 Build 0)  -->
<svg version="1.1" id="Calque_1" xmlns="http://www.w3.org/2000/svg" xmlns:xlink="http://www.w3.org/1999/xlink" x="0px" y="0px"
	 viewBox="0 0 3096 3096" style="enable-background:new 0 0 3096 3096;" xml:space="preserve">
<style type="text/css">
	.st0{fill:none;stroke:url(#SVGID_1_);stroke-width:30;stroke-miterlimit:10;}
	.st1{fill:none;stroke:url(#SVGID_2_);stroke-width:30;stroke-miterlimit:10;}
	.st2{fill:none;stroke:url(#SVGID_3_);stroke-width:30;stroke-miterlimit:10;}
	.st3{fill:none;stroke:url(#SVGID_4_);stroke-width:30;stroke-miterlimit:10;}
	.st4{fill:none;stroke:url(#SVGID_5_);stroke-width:30;stroke-miterlimit:10;}
	.st5{fill:none;stroke:url(#SVGID_6_);stroke-width:30;stroke-miterlimit:10;}
</style>
<linearGradient id="SVGID_1_" gradientUnits="userSpaceOnUse" x1="-12.0109" y1="2645.4717" x2="954.8104" y2="2645.4717">
	<stop  offset="0" style="stop-color:#00FF99"/>
	<stop  offset="1" style="stop-color:#33CCFF"/>
</linearGradient>
<path class="st0" d="M947.2,2291.7c0,0-174.5,102.6-232.6,126.6c-58.2,23.9-331.8,99.2-441.3,232.6C163.8,2784.3,0,3003.2,0,3003.2"
	/>
<linearGradient id="SVGID_2_" gradientUnits="userSpaceOnUse" x1="962.3605" y1="2721.9072" x2="1211.3561" y2="2721.9072">
	<stop  offset="0" style="stop-color:#00FF99"/>
	<stop  offset="1" style="stop-color:#33CCFF"/>
</linearGradient>
<path class="st1" d="M981.4,2339.6c0,0-20.5,157.4,30.8,383.2c51.3,225.8,188.2,373.3,188.2,373.3"/>
<linearGradient id="SVGID_3_" gradientUnits="userSpaceOnUse" x1="1934.7332" y1="2644.4302" x2="2267.8113" y2="2644.4302">
	<stop  offset="0" style="stop-color:#00FF99"/>
	<stop  offset="1" style="stop-color:#33CCFF"/>
</linearGradient>
<path class="st2" d="M1942.7,3096c0,0,109.5-68.8,232.6-280.9c123.2-212.1,68.4-424.2,44.5-475.5
	c-23.9-51.3-160.8-147.1-160.8-147.1"/>
<linearGradient id="SVGID_4_" gradientUnits="userSpaceOnUse" x1="2071.6284" y1="2432.0481" x2="3110.3706" y2="2432.0481">
	<stop  offset="0" style="stop-color:#00FF99"/>
	<stop  offset="1" style="stop-color:#33CCFF"/>
</linearGradient>
<path class="st3" d="M2076.1,2192.4c0,0,249.7,78.7,304.5,119.7s116.3,68.4,242.9,112.9c126.6,44.5,246.3,123.2,297.6,150.5
	c51.3,27.4,151.3,27.4,174.9,106.1"/>
<linearGradient id="SVGID_5_" gradientUnits="userSpaceOnUse" x1="555.4545" y1="1475.447" x2="2279.1389" y2="1475.447">
	<stop  offset="0" style="stop-color:#00FF99"/>
	<stop  offset="1" style="stop-color:#33CCFF"/>
</linearGradient>
<path class="st4" d="M2097.8,1853.8c0,0,7.9,95.8,0,195c-7.9,99.2-107.2,283.9-137.9,325c-30.8,41.1-47.9,82.1-99.2,153.9
	s-71.8,136.8-280.5,153.9c-208.7,17.1-331.8-6.8-379.7-71.8c-47.9-65-147.1-171.1-174.5-212.1c-27.4-41.1-112.9-147.1-126.6-205.3
	c-13.7-58.2-61.6-236-71.8-242.9s-92.4-75.3-119.7-133.4c-27.4-58.2-51.3-75.3-58.2-157.4c-6.8-82.1-75.3-160.8-78.7-198.4
	c-3.4-37.6,13.7-61.6,30.8-71.8c17.1-10.3,54.7,0,54.7,0s-13.7-304.5-10.3-400.3c3.4-95.8-20.5-177.9,13.7-260
	s47.9-143.7,116.3-201.8c68.4-58.2,99.2-147.1,171.1-171.1s242.9-88.9,403.7-88.9s256.6-17.1,297.6,37.6s51.3,92.4,51.3,92.4
	s88.9-17.1,195,41.1c106.1,58.2,123.2,78.7,160.8,205.3c37.6,126.6,82.1,198.4,85.5,383.2s0,270.3,0,270.3s71.8-65,95.8-37.6
	c23.9,27.4,38.6,10.3,15.9,102.6s-19.3,167.6-36.4,229.2c-17.1,61.6-34.2,75.3-34.2,130S2122.8,1853.8,2097.8,1853.8z"/>
<linearGradient id="SVGID_6_" gradientUnits="userSpaceOnUse" x1="722.9653" y1="1162.9514" x2="2098.7383" y2="1162.9514">
	<stop  offset="0" style="stop-color:#00FF99"/>
	<stop  offset="1" style="stop-color:#33CCFF"/>
</linearGradient>
<path class="st5" d="M800.1,1744.3c0,0,0-61.6-34.2-164.2s-27.4-171.1-27.4-390s20.5-294.2,82.1-376.3S998.5,718,1088.9,718
	s169.7-6.8,224.4-54.7c54.7-47.9,191.6-34.2,191.6-34.2c102.6-27.4,102.6-27.4,102.6-27.4s-6.8,68.4,123.2,54.7
	c130-13.7,198.4,0,212.1,61.6c13.7,61.6,54.7,123.2,27.4,198.4s34.2,95.8,68.4,205.3c34.2,109.5,20.5,164.2,37.6,273.7
	c17.1,109.5,0,152.6,0,152.6"/>
</svg>
