<?xml version="1.0" encoding="utf-8"?>
<!-- Generator: Adobe Illustrator 23.0.4, SVG Export Plug-In . SVG Version: 6.00 Build 0)  -->
<svg version="1.1" id="Calque_1" xmlns="http://www.w3.org/2000/svg" xmlns:xlink="http://www.w3.org/1999/xlink" x="0px" y="0px"
	 viewBox="0 0 3096 3096" style="enable-background:new 0 0 3096 3096;" xml:space="preserve">
<style type="text/css">
	.st0{fill:none;stroke:url(#SVGID_1_);stroke-width:30;stroke-miterlimit:10;}
	.st1{fill:none;stroke:url(#SVGID_2_);stroke-width:30;stroke-miterlimit:10;}
	.st2{fill:none;stroke:url(#SVGID_3_);stroke-width:30;stroke-miterlimit:10;}
	.st3{fill:none;stroke:url(#SVGID_4_);stroke-width:30;stroke-miterlimit:10;}
	.st4{fill:none;stroke:url(#SVGID_5_);stroke-width:30;stroke-miterlimit:10;}
	.st5{fill:none;stroke:url(#SVGID_6_);stroke-width:30;stroke-miterlimit:10;}
	.st6{fill:none;stroke:url(#SVGID_7_);stroke-width:30;stroke-miterlimit:10;}
	.st7{fill:none;stroke:url(#SVGID_8_);stroke-width:30;stroke-miterlimit:10;}
	.st8{fill:none;stroke:url(#SVGID_9_);stroke-width:30;stroke-miterlimit:10;}
</style>
<linearGradient id="SVGID_1_" gradientUnits="userSpaceOnUse" x1="2171.5618" y1="588.2395" x2="3092.8162" y2="588.2395" gradientTransform="matrix(1 0 0 -1 0 3096)">
	<stop  offset="0" style="stop-color:#00FF99"/>
	<stop  offset="1" style="stop-color:#33CCFF"/>
</linearGradient>
<path class="st0" d="M2186.3,2287.4c9.1,48.6,23.9,89.3,101.9,120.5s741.6,307.9,804.6,307.9"/>
<linearGradient id="SVGID_2_" gradientUnits="userSpaceOnUse" x1="-20.5587" y1="2520.7751" x2="944.993" y2="2520.7751">
	<stop  offset="0" style="stop-color:#00FF99"/>
	<stop  offset="1" style="stop-color:#33CCFF"/>
</linearGradient>
<path class="st1" d="M930.4,2250.6c0,0-40.2,170.8-113.2,194.9c-212.1,70.2-345.5,147.1-496,194.9s-335,140.5-335,140.5"/>
<linearGradient id="SVGID_3_" gradientUnits="userSpaceOnUse" x1="733.6526" y1="1483.4435" x2="2387.5254" y2="1483.4435">
	<stop  offset="0" style="stop-color:#00FF99"/>
	<stop  offset="1" style="stop-color:#33CCFF"/>
</linearGradient>
<path class="st2" d="M1874.3,382.7c0,0-85.5-95.8-253.2-126.6s-348.9,34.2-424.2,95.8s-160.8,153.9-246.3,242.9
	S789.8,769.3,765.9,892.5s0,348.9,0,348.9s-28.1,0-10.6,61.6c17.5,61.6,1.8,75.3-5.7,143.7c-7.6,68.4,36.9,130,36.9,130
	s-13.7,294.2,34.2,407.1c47.9,112.9,99.2,277.1,150.5,328.4c51.3,51.3,112.9,177.9,273.7,256.6c160.8,78.7,303.2,147.1,303.2,147.1
	s103.9-88.9,254.5-157.4c150.5-68.4,236-79.5,301-157.8s157.4-201.4,177.9-386.1c20.5-184.7,17.1-212.1,17.1-212.1
	s65-17.1,47.9-95.8c-17.1-78.7,10.3-71.8,20.5-201.8s6.8-218.9-13.7-246.3c-20.5-27.4-17.1-102.6-17.1-174.5s17.1-232.6-61.6-366
	C2195.9,584.6,2100.1,399.8,1874.3,382.7z"/>
<linearGradient id="SVGID_4_" gradientUnits="userSpaceOnUse" x1="802.207" y1="941.4882" x2="2303.2329" y2="941.4882">
	<stop  offset="0" style="stop-color:#00FF99"/>
	<stop  offset="1" style="stop-color:#33CCFF"/>
</linearGradient>
<path class="st3" d="M817.2,1409c0,0,0-171.1,0-338.7c0-167.6,23.9-75.3,54.7-143.7s-37.6-88.9,27.4-174.5S1066.9,560.6,1149,523
	c82.1-37.6,222.4-44.5,410.5-37.6s0,0,106.1,10.3c106.1,10.3,188.2,0,188.2,0c27.4-10.3,30.8-34.2,30.8-34.2s23.9,65,85.5,102.6
	c61.6,37.6,171.1,95.8,208.7,208.7c37.6,112.9,34.2,147.1,17.1,184.7s-23.3,37.6,12.3,88.9c35.6,51.3,8.2,30.8,42.4,167.6
	c34.2,136.8,37.6,268,37.6,268"/>
<linearGradient id="SVGID_5_" gradientUnits="userSpaceOnUse" x1="1210.6638" y1="2288.5647" x2="1871.5243" y2="2288.5647">
	<stop  offset="0" style="stop-color:#00FF99"/>
	<stop  offset="1" style="stop-color:#33CCFF"/>
</linearGradient>
<path class="st4" d="M1220.4,2238.6c0,0,143.7,123.2,256.6,123.2s133.4,23.9,236-30.8c102.6-54.7,123.2-106.1,150.5-123.2"/>
<linearGradient id="SVGID_6_" gradientUnits="userSpaceOnUse" x1="952.8679" y1="2704.9385" x2="1200.6392" y2="2704.9385">
	<stop  offset="0" style="stop-color:#00FF99"/>
	<stop  offset="1" style="stop-color:#33CCFF"/>
</linearGradient>
<path class="st5" d="M1186.7,3096c0,0-112.9-287.8-174.5-496.5s-41.1-287.4-41.1-287.4"/>
<linearGradient id="SVGID_7_" gradientUnits="userSpaceOnUse" x1="1907.4126" y1="2720.0916" x2="2155.2327" y2="2720.0916">
	<stop  offset="0" style="stop-color:#00FF99"/>
	<stop  offset="1" style="stop-color:#33CCFF"/>
</linearGradient>
<path class="st6" d="M1922.2,3089.6c0,0,51.3-295.1,106.1-438.8s113-297.6,113-297.6"/>
<linearGradient id="SVGID_8_" gradientUnits="userSpaceOnUse" x1="1582.5402" y1="2889.7415" x2="1868.9548" y2="2889.7415">
	<stop  offset="0" style="stop-color:#00FF99"/>
	<stop  offset="1" style="stop-color:#33CCFF"/>
</linearGradient>
<path class="st7" d="M1583.5,2704.1c0,0,78.7-5.1,153.9,76.9c75.3,82,119.7,183.7,116.3,246.2c-3.4,62.5-3.4,62.5-3.4,62.5"/>
<linearGradient id="SVGID_9_" gradientUnits="userSpaceOnUse" x1="1139.0345" y1="2826.8618" x2="1428.9877" y2="2826.8618">
	<stop  offset="0" style="stop-color:#00FF99"/>
	<stop  offset="1" style="stop-color:#33CCFF"/>
</linearGradient>
<path class="st8" d="M1154,3010.8c0,0,1.9-182,111.3-247c109.5-65,152.7-110.6,152.7-110.6"/>
</svg>
