<?xml version="1.0" encoding="utf-8"?>
<!-- Generator: Adobe Illustrator 23.0.4, SVG Export Plug-In . SVG Version: 6.00 Build 0)  -->
<svg version="1.1" id="Calque_1" xmlns="http://www.w3.org/2000/svg" xmlns:xlink="http://www.w3.org/1999/xlink" x="0px" y="0px"
	 viewBox="0 0 3096 3096" style="enable-background:new 0 0 3096 3096;" xml:space="preserve">
<style type="text/css">
	.st0{fill:none;stroke:url(#SVGID_1_);stroke-width:30;stroke-miterlimit:10;}
	.st1{fill:none;stroke:url(#SVGID_2_);stroke-width:30;stroke-miterlimit:10;}
	.st2{fill:none;stroke:url(#SVGID_3_);stroke-width:30;stroke-miterlimit:10;}
	.st3{fill:none;stroke:url(#SVGID_4_);stroke-width:30;stroke-miterlimit:10;}
	.st4{fill:none;stroke:url(#SVGID_5_);stroke-width:30;stroke-miterlimit:10;}
	.st5{fill:none;stroke:url(#SVGID_6_);stroke-width:30;stroke-miterlimit:10;}
	.st6{fill:none;stroke:url(#SVGID_7_);stroke-width:30;stroke-miterlimit:10;}
	.st7{fill:none;stroke:url(#SVGID_8_);stroke-width:30;stroke-miterlimit:10;}
</style>
<linearGradient id="SVGID_1_" gradientUnits="userSpaceOnUse" x1="2208.4966" y1="644.3303" x2="3078.1191" y2="644.3303" gradientTransform="matrix(1 0 0 -1 0 3096)">
	<stop  offset="0" style="stop-color:#00FF99"/>
	<stop  offset="1" style="stop-color:#33CCFF"/>
</linearGradient>
<path class="st0" d="M2223.2,2250.6c9.1,48.6,356.9,243.5,434.9,274.7s357,115.2,420,115.2"/>
<linearGradient id="SVGID_2_" gradientUnits="userSpaceOnUse" x1="-2.3467" y1="2541.4224" x2="1071.394" y2="2541.4224">
	<stop  offset="0" style="stop-color:#00FF99"/>
	<stop  offset="1" style="stop-color:#33CCFF"/>
</linearGradient>
<path class="st1" d="M1066.9,2400.7c0,0-171.1,53.2-396.8,98.7c-225.8,45.5-239.5,66-390,113.9S0,2681.7,0,2681.7"/>
<linearGradient id="SVGID_3_" gradientUnits="userSpaceOnUse" x1="2023.7446" y1="2448.6702" x2="2238.239" y2="2448.6702">
	<stop  offset="0" style="stop-color:#00FF99"/>
	<stop  offset="1" style="stop-color:#33CCFF"/>
</linearGradient>
<path class="st2" d="M2038.5,3089.6c0,0,34.2-189,102.6-483.2s82.1-205.3,82.1-314.7c0-109.5-82.1-157.4-82.1-157.4
	s34.2-133.4,47.9-212.1c13.7-78.7,20.5-114.3,20.5-114.3"/>
<linearGradient id="SVGID_4_" gradientUnits="userSpaceOnUse" x1="1093.0486" y1="2748.3938" x2="1187.9269" y2="2748.3938">
	<stop  offset="0" style="stop-color:#00FF99"/>
	<stop  offset="1" style="stop-color:#33CCFF"/>
</linearGradient>
<path class="st3" d="M1108,2400.7c0,0,6.8,78.7,20.5,140.5c13.7,61.8,30.8,61.8,23.9,161S1173,3096,1173,3096"/>
<linearGradient id="SVGID_5_" gradientUnits="userSpaceOnUse" x1="2140.1521" y1="1545.924" x2="2417.251" y2="1545.924">
	<stop  offset="0" style="stop-color:#00FF99"/>
	<stop  offset="1" style="stop-color:#33CCFF"/>
</linearGradient>
<path class="st4" d="M2154.8,1682.7c0,0,0,0,10.3,47.9c10.3,47.9,20.5,47.9,44.5,77.2c23,28.2,78.7,4.9,95.8-25.9
	c17.1-30.8,20.5-61.6,68.4-150.5c47.9-88.9,22-177.5,17.1-208.7c-10.3-65,10.3-136.8-58.2-147.1c-68.4-10.3-78.7-3.4-123.2,34.2
	c-44.5,37.6-44.5,37.6-44.5,37.6"/>
<linearGradient id="SVGID_6_" gradientUnits="userSpaceOnUse" x1="846.0947" y1="1401.4459" x2="2407.915" y2="1401.4459">
	<stop  offset="0" style="stop-color:#00FF99"/>
	<stop  offset="1" style="stop-color:#33CCFF"/>
</linearGradient>
<path class="st5" d="M2392.4,1354.3c0,0,1.9-75.3-1.5-164.2c-4.5-116.2-30.8-287.4-88.9-383.2s-150.5-232.6-304.5-325
	s-232.6-102.6-396.8-126.6s-277.1,44.5-369.5,130s-44.5,109.5-44.5,109.5s-41.1,27.4-106.1,112.9s-30.8,71.8-99.2,198.4
	s-37.6,106.1-47.9,160.8c-10.3,54.7-20.5,99.2-30.8,150.5c-10.3,51.3,0,75.3,0,75.3c6.8,71.8-5.7,150.5-4.6,195
	c1.1,44.5,22.7,47.1-0.1,126.2c-22.7,79.1-46.7,112.5-33,290.8c13.7,178.3,58.2,346.3,150.5,421.2s102.6,143.1,273.7,122.9
	s229.2,2.8,283.9-48c54.7-50.9,167.6-74.8,256.6-112.5c88.9-37.6,136.8-23.9,208.7-191.6s133.3-325.2,133.3-325.2"/>
<linearGradient id="SVGID_7_" gradientUnits="userSpaceOnUse" x1="863.364" y1="1317.739" x2="2071.1035" y2="1317.739">
	<stop  offset="0" style="stop-color:#00FF99"/>
	<stop  offset="1" style="stop-color:#33CCFF"/>
</linearGradient>
<path class="st6" d="M957.5,1043c0,0,23.9-75.3,88.9-167.6s85.5-153.9,167.6-191.6c82.1-37.6,140.3-82.1,225.8-82.1
	s158.3-20.5,205.7,0c47.4,20.5,139.8,34.2,177.4,78.7c37.6,44.5,61.6-10.3,106.1,201.8s23.9,266.8,82.1,331.8
	c58.2,65,51.3,20.5,27.4,205.3s-3.4,212.1-102.6,225.8c-99.2,13.7-150.5,0-164.2,75.3c-13.7,75.3,3.4,109.5-51.3,164.2
	s-88.9,136.1-106.1,20.2c-17.1-115.9-34.2-177.5-92.4-177.5c-58.2,0-88.9,10.3-136.8-10.3s-47.9-20.5-92.4,3.4s-71.8,0-88.9-3.4
	s34.2-20.5-47.9,37.6c-82.1,58.2-82.1,60.1-109.5,66c-27.4,5.9-23.9,32.5-10.3,84.2c13.7,51.7,44.5,181.7,6.8,123.5
	c-37.6-58.2-82.1-106.1-119.7-188.2c-37.6-82.1-47.9-95.8-47.9-95.8"/>
<linearGradient id="SVGID_8_" gradientUnits="userSpaceOnUse" x1="1115.0446" y1="2029.5887" x2="1453.2728" y2="2029.5887">
	<stop  offset="0" style="stop-color:#00FF99"/>
	<stop  offset="1" style="stop-color:#33CCFF"/>
</linearGradient>
<path class="st7" d="M1140.5,1963c0,0,106.6,9.3,179.6-8.9s155.1-13.7,100.3,0c-54.7,13.7-50.2,31.6-82.1,88.8
	s-13.7,102.8-95.8,52.6C1160.4,2045.3,1106.2,1967.9,1140.5,1963z"/>
</svg>
