<?xml version="1.0" encoding="utf-8"?>
<!-- Generator: Adobe Illustrator 23.0.4, SVG Export Plug-In . SVG Version: 6.00 Build 0)  -->
<svg version="1.1" id="Layer_1" xmlns="http://www.w3.org/2000/svg" xmlns:xlink="http://www.w3.org/1999/xlink" x="0px" y="0px"
	 viewBox="0 0 80 80" style="enable-background:new 0 0 80 80;" xml:space="preserve">
<style type="text/css">
	.st0{fill:none;}
	.st1{fill:none;stroke:url(#SVGID_1_);stroke-miterlimit:10;}
	.st2{fill:#231F20;}
	.st3{fill:#6CAA00;}
</style>
<rect x="0.1" class="st0" width="80" height="80"/>
<linearGradient id="SVGID_1_" gradientUnits="userSpaceOnUse" x1="40.0884" y1="-238.7411" x2="40.0884" y2="-238.7411" gradientTransform="matrix(1 0 0 -1 0 -210)">
	<stop  offset="0" style="stop-color:#6666FF"/>
	<stop  offset="1" style="stop-color:#897DE4"/>
</linearGradient>
<path class="st1" d="M40.1,28.7"/>
<path class="st2" d="M15.6,34.7L15.6,34.7L15.6,34.7z"/>
<path class="st2" d="M27.4,36.9L27.4,36.9L27.4,36.9z"/>
<path class="st2" d="M36.2,38.1L36.2,38.1L36.2,38.1z"/>
<path class="st2" d="M24.6,33.9L24.6,33.9L24.6,33.9z"/>
<path class="st2" d="M33.2,34.9L33.2,34.9L33.2,34.9z"/>
<path class="st2" d="M44.2,26.7L44.2,26.7L44.2,26.7z"/>
<path class="st2" d="M42.4,25.9L42.4,25.9L42.4,25.9z"/>
<path class="st3" d="M61.5,28.2c0,12-20.1,44-21.6,44s-21.6-32-21.6-44S27.9,6.6,39.8,6.6S61.5,16.3,61.5,28.2z M39.8,13.7
	c-7.7,0-13.9,6.2-13.9,13.9s6.2,13.9,13.9,13.9s13.9-6.2,13.9-13.9S47.5,13.7,39.8,13.7z"/>
</svg>
