<?xml version="1.0" encoding="utf-8"?>
<!-- Generator: Adobe Illustrator 23.0.4, SVG Export Plug-In . SVG Version: 6.00 Build 0)  -->
<svg version="1.1" id="Layer_1" xmlns="http://www.w3.org/2000/svg" xmlns:xlink="http://www.w3.org/1999/xlink" x="0px" y="0px"
	 viewBox="0 0 612 792" style="enable-background:new 0 0 612 792;" xml:space="preserve">
<style type="text/css">
	.st0{fill:none;stroke:url(#SVGID_1_);stroke-width:5;stroke-miterlimit:10;}
	.st1{fill:none;stroke:url(#SVGID_2_);stroke-width:5;stroke-miterlimit:10;}
	.st2{fill:none;stroke:url(#SVGID_3_);stroke-miterlimit:10;}
	.st3{fill:#6CAA00;enable-background:new    ;}
	.st4{fill:none;stroke:#FFFFFF;stroke-width:5;stroke-miterlimit:10;}
	.st5{fill:none;stroke:url(#SVGID_4_);stroke-width:5;stroke-miterlimit:10;}
	.st6{fill:none;stroke:url(#SVGID_5_);stroke-width:5;stroke-miterlimit:10;}
</style>
<linearGradient id="SVGID_1_" gradientUnits="userSpaceOnUse" x1="297" y1="527.55" x2="302" y2="527.55">
	<stop  offset="0" style="stop-color:#00FF99"/>
	<stop  offset="1" style="stop-color:#33CCFF"/>
</linearGradient>
<line class="st0" x1="299.5" y1="489.7" x2="299.5" y2="565.4"/>
<linearGradient id="SVGID_2_" gradientUnits="userSpaceOnUse" x1="72.7" y1="486.6633" x2="526.3" y2="486.6633">
	<stop  offset="0" style="stop-color:#00FF99"/>
	<stop  offset="1" style="stop-color:#33CCFF"/>
</linearGradient>
<polyline class="st1" points="366,387 408.6,405 523.8,353.6 523.8,567.3 408.6,620.8 299.7,565.4 191.1,620.7 75.2,567.3 
	75.2,353.6 191.1,405 232.9,386 "/>
<linearGradient id="SVGID_3_" gradientUnits="userSpaceOnUse" x1="302" y1="207.6" x2="302" y2="207.6" gradientTransform="matrix(1 0 0 -1 0 500)">
	<stop  offset="0" style="stop-color:#6666FF"/>
	<stop  offset="1" style="stop-color:#897DE4"/>
</linearGradient>
<path class="st2" d="M302,292.4"/>
<circle class="st3" cx="580.8" cy="391.9" r="3"/>
<circle class="st3" cx="529.9" cy="305.6" r="3"/>
<circle class="st3" cx="470.6" cy="268.2" r="3"/>
<circle class="st3" cx="561.6" cy="324" r="3"/>
<circle class="st3" cx="501.1" cy="286.3" r="3"/>
<circle class="st3" cx="440.5" cy="251" r="3"/>
<circle class="st3" cx="411.6" cy="232.6" r="3"/>
<circle class="st3" cx="580.8" cy="356.2" r="3"/>
<circle class="st3" cx="580.8" cy="426.4" r="3"/>
<circle class="st3" cx="580.8" cy="461.8" r="3"/>
<circle class="st3" cx="580.8" cy="495.2" r="3"/>
<circle class="st3" cx="580.8" cy="531.7" r="3"/>
<circle class="st3" cx="494.5" cy="688.3" r="3"/>
<circle class="st3" cx="580.8" cy="635.3" r="3"/>
<circle class="st3" cx="580.8" cy="565.4" r="3"/>
<circle class="st3" cx="580.8" cy="601.1" r="3"/>
<circle class="st3" cx="555.3" cy="654.9" r="3"/>
<circle class="st3" cx="526.8" cy="670.9" r="3"/>
<circle class="st3" cx="463.4" cy="703.2" r="3"/>
<circle class="st3" cx="432.5" cy="721.1" r="3"/>
<circle class="st3" cx="401.8" cy="737.5" r="3"/>
<circle class="st3" cx="371.7" cy="752.3" r="3"/>
<circle class="st3" cx="340.8" cy="769.6" r="3"/>
<circle class="st3" cx="312.2" cy="787" r="3"/>
<circle class="st3" cx="280.1" cy="780.4" r="3"/>
<circle class="st3" cx="247.5" cy="761.5" r="3"/>
<circle class="st3" cx="220.2" cy="746.4" r="3"/>
<circle class="st3" cx="157.8" cy="711.6" r="3"/>
<circle class="st3" cx="125.1" cy="694.7" r="3"/>
<circle class="st3" cx="188.1" cy="727" r="3"/>
<circle class="st3" cx="66.1" cy="660.3" r="3"/>
<circle class="st3" cx="97.9" cy="677.2" r="3"/>
<circle class="st3" cx="36.3" cy="644" r="3"/>
<circle class="st3" cx="30.4" cy="611.6" r="3"/>
<circle class="st3" cx="30.4" cy="579.4" r="3"/>
<circle class="st3" cx="30.4" cy="542.5" r="3"/>
<circle class="st3" cx="30.4" cy="510.2" r="3"/>
<circle class="st3" cx="30.4" cy="473.5" r="3"/>
<circle class="st3" cx="30.4" cy="440.9" r="3"/>
<circle class="st3" cx="30.4" cy="405" r="3"/>
<circle class="st3" cx="30.4" cy="369.1" r="3"/>
<circle class="st3" cx="169" cy="243.9" r="3"/>
<circle class="st3" cx="139.2" cy="258.9" r="3"/>
<circle class="st3" cx="30.4" cy="333.5" r="3"/>
<circle class="st3" cx="48.1" cy="308.6" r="3"/>
<circle class="st3" cx="108.1" cy="277.2" r="3"/>
<circle class="st3" cx="78.4" cy="292.4" r="3"/>
<path class="st4" d="M405.7,276.7c0,58.6-98.2,215.5-106,215.5s-106-156.9-106-215.5s47.5-106,106-106S405.7,218.2,405.7,276.7z"/>
<circle class="st4" cx="299.7" cy="274" r="58.9"/>
<circle class="st4" cx="299.7" cy="110.8" r="29.2"/>
<circle class="st4" cx="299.7" cy="37.3" r="13.7"/>
<linearGradient id="SVGID_4_" gradientUnits="userSpaceOnUse" x1="188.6" y1="514.05" x2="193.6" y2="514.05">
	<stop  offset="0" style="stop-color:#00FF99"/>
	<stop  offset="1" style="stop-color:#33CCFF"/>
</linearGradient>
<line class="st5" x1="191.1" y1="407.4" x2="191.1" y2="620.7"/>
<linearGradient id="SVGID_5_" gradientUnits="userSpaceOnUse" x1="406.1" y1="514.05" x2="411.1" y2="514.05">
	<stop  offset="0" style="stop-color:#00FF99"/>
	<stop  offset="1" style="stop-color:#33CCFF"/>
</linearGradient>
<line class="st6" x1="408.6" y1="407.4" x2="408.6" y2="620.7"/>
</svg>
