<?xml version="1.0" encoding="utf-8"?>
<!-- Generator: Adobe Illustrator 23.0.4, SVG Export Plug-In . SVG Version: 6.00 Build 0)  -->
<svg version="1.1" id="Layer_1" xmlns="http://www.w3.org/2000/svg" xmlns:xlink="http://www.w3.org/1999/xlink" x="0px" y="0px"
	 viewBox="0 0 612 792" style="enable-background:new 0 0 612 792;" xml:space="preserve">
<style type="text/css">
	.st0{fill:none;stroke:url(#SVGID_1_);stroke-width:5;stroke-miterlimit:10;}
	.st1{fill:none;stroke:#FFFFFF;stroke-width:5;stroke-miterlimit:10;}
	.st2{fill:none;stroke:url(#SVGID_2_);stroke-miterlimit:10;}
	.st3{fill:#6CAA00;}
	.st4{fill:none;stroke:url(#SVGID_3_);stroke-width:5;stroke-miterlimit:10;}
	.st5{fill:none;stroke:url(#SVGID_4_);stroke-width:5;stroke-miterlimit:10;}
	.st6{fill:none;stroke:url(#SVGID_5_);stroke-width:5;stroke-miterlimit:10;}
	.st7{fill:url(#SVGID_6_);}
	.st8{fill:url(#SVGID_7_);}
	.st9{fill:url(#SVGID_8_);}
	.st10{fill:url(#SVGID_9_);}
	.st11{fill:none;stroke:url(#SVGID_10_);stroke-width:5;stroke-miterlimit:10;}
	.st12{fill:none;stroke:url(#SVGID_11_);stroke-width:5;stroke-miterlimit:10;}
	.st13{fill:none;stroke:url(#SVGID_12_);stroke-width:5;stroke-miterlimit:10;}
	.st14{fill:none;stroke:url(#SVGID_13_);stroke-width:5;stroke-miterlimit:10;}
	.st15{fill:none;stroke:url(#SVGID_14_);stroke-width:5;stroke-miterlimit:10;}
	.st16{fill:none;stroke:url(#SVGID_15_);stroke-width:5;stroke-miterlimit:10;}
	.st17{fill:none;stroke:url(#SVGID_16_);stroke-width:5;stroke-miterlimit:10;}
	.st18{fill:none;stroke:url(#SVGID_17_);stroke-width:5;stroke-miterlimit:10;}
	.st19{fill:none;stroke:url(#SVGID_18_);stroke-width:5;stroke-miterlimit:10;}
	.st20{fill:none;stroke:url(#SVGID_19_);stroke-width:5;stroke-miterlimit:10;}
	.st21{fill:none;stroke:url(#SVGID_20_);stroke-width:5;stroke-miterlimit:10;}
</style>
<linearGradient id="SVGID_1_" gradientUnits="userSpaceOnUse" x1="134.2798" y1="528.6285" x2="476.7202" y2="528.6285">
	<stop  offset="0" style="stop-color:#00FF99"/>
	<stop  offset="1" style="stop-color:#33CCFF"/>
</linearGradient>
<path class="st0" d="M378.9,401.6c5,0,46,0,51,0c12.1,0,20.7,7.2,20.8,17.2c0,6.8-0.1,13.5,0.1,20.3c0.1,2,0.6,4.1,1.7,5.8
	c6.4,10.6,13.1,21.1,19.5,31.7c1.3,2.1,1.9,4.7,2.1,7c0.3,5,0,13,0.1,18c0,1.9-0.8,3.3-2.7,4.4c-5.4,3.2-11.3,5.2-17.8,6
	c-2.2,0.3-3,0.9-3,2.8c0.1,22.3,0.1,41.7,0.1,64.1c0,15.3,0,30.5,0,45.8c0,1,0,2,0,3.1c3,0.3,6.8-0.1,9.3,0.4
	c8.4,0,14,3.5,14.1,11.3c0.1,3.5,0,6.9,0,10.4c0,4.7-1.3,5.7-6.8,5.7c-21,0-42,0-62.9,0c-79.7,0-159.4,0-239.2,0c-7.5,0-15,0-22.5,0
	c-4.3,0-5.9-1.4-5.9-5c0-3.5,0-7.1,0-10.6c0.1-9.8,8.5-11.7,20.4-11.9c0.9,0,1.8-0.1,2.8-0.1c0-39.5,0-75.9,0-115.4
	c-3-0.6-6.1-0.9-8.9-1.9c-4-1.3-7.9-2.8-11.4-4.7c-1.5-0.8-2.7-2.8-2.7-4.2c-0.3-5.8-0.2-14.5,0-20.3c0-1.3,0.7-2.7,1.4-3.9
	c6.9-11.2,13.8-22.3,20.7-33.5c0.7-1.2,1.1-2.6,1.2-4c0.1-7.1,0-14.2,0.1-21.3c0-10.2,8.6-17.3,20.9-17.3c47.2,0,143.3,0,190.5,0"/>
<path class="st1" d="M391.2,657.3"/>
<linearGradient id="SVGID_2_" gradientUnits="userSpaceOnUse" x1="302" y1="432.4" x2="302" y2="432.4" gradientTransform="matrix(1 0 0 1 0 -140)">
	<stop  offset="0" style="stop-color:#6666FF"/>
	<stop  offset="1" style="stop-color:#897DE4"/>
</linearGradient>
<path class="st2" d="M302,292.4"/>
<circle class="st3" cx="580.8" cy="391.9" r="3"/>
<circle class="st3" cx="542.9" cy="310.6" r="3"/>
<circle class="st3" cx="573.6" cy="330" r="3"/>
<circle class="st3" cx="514.1" cy="290.3" r="3"/>
<circle class="st3" cx="459.5" cy="256" r="3"/>
<circle class="st3" cx="429.6" cy="240.6" r="3"/>
<circle class="st3" cx="486.2" cy="272.9" r="3"/>
<circle class="st3" cx="397.2" cy="222.7" r="3"/>
<circle class="st3" cx="365.2" cy="207.3" r="3"/>
<circle class="st3" cx="580.8" cy="356.2" r="3"/>
<circle class="st3" cx="580.8" cy="426.4" r="3"/>
<circle class="st3" cx="580.8" cy="461.8" r="3"/>
<circle class="st3" cx="580.8" cy="495.2" r="3"/>
<circle class="st3" cx="580.8" cy="531.7" r="3"/>
<circle class="st3" cx="494.5" cy="688.3" r="3"/>
<circle class="st3" cx="580.8" cy="635.3" r="3"/>
<circle class="st3" cx="580.8" cy="565.4" r="3"/>
<circle class="st3" cx="580.8" cy="601.1" r="3"/>
<circle class="st3" cx="555.3" cy="654.9" r="3"/>
<circle class="st3" cx="526.8" cy="670.9" r="3"/>
<circle class="st3" cx="463.4" cy="703.2" r="3"/>
<circle class="st3" cx="432.5" cy="721.1" r="3"/>
<circle class="st3" cx="401.8" cy="737.5" r="3"/>
<circle class="st3" cx="371.7" cy="752.3" r="3"/>
<circle class="st3" cx="340.8" cy="769.6" r="3"/>
<circle class="st3" cx="312.2" cy="787" r="3"/>
<circle class="st3" cx="280.1" cy="780.4" r="3"/>
<circle class="st3" cx="247.5" cy="761.5" r="3"/>
<circle class="st3" cx="220.2" cy="746.4" r="3"/>
<circle class="st3" cx="157.8" cy="711.6" r="3"/>
<circle class="st3" cx="125.1" cy="694.7" r="3"/>
<circle class="st3" cx="188.1" cy="727" r="3"/>
<circle class="st3" cx="231.2" cy="216.5" r="3"/>
<circle class="st3" cx="199.1" cy="230.8" r="3"/>
<circle class="st3" cx="66.1" cy="660.3" r="3"/>
<circle class="st3" cx="97.9" cy="677.2" r="3"/>
<circle class="st3" cx="36.3" cy="644" r="3"/>
<circle class="st3" cx="30.4" cy="611.6" r="3"/>
<circle class="st3" cx="30.4" cy="579.4" r="3"/>
<circle class="st3" cx="30.4" cy="542.5" r="3"/>
<circle class="st3" cx="30.4" cy="510.2" r="3"/>
<circle class="st3" cx="30.4" cy="473.5" r="3"/>
<circle class="st3" cx="30.4" cy="440.9" r="3"/>
<circle class="st3" cx="30.4" cy="405" r="3"/>
<circle class="st3" cx="30.4" cy="369.1" r="3"/>
<circle class="st3" cx="169" cy="243.9" r="3"/>
<circle class="st3" cx="139.2" cy="258.9" r="3"/>
<circle class="st3" cx="30.4" cy="333.5" r="3"/>
<circle class="st3" cx="48.1" cy="308.6" r="3"/>
<circle class="st3" cx="108.1" cy="277.2" r="3"/>
<circle class="st3" cx="78.4" cy="292.4" r="3"/>
<g id="Comments_-_Orange">
	<path class="st1" d="M295.6,55.6c-42.6,3.8-80.8,33.6-77.9,65.7c1.3,14.6,15.5,24.6,22.2,30.8l10,9.2l-4.4,39l35.7-28.4l2.4-0.7
		l2.5-0.1c5-0.3,9.9-0.2,14.6,0c4.3,0.2,8.3,0.3,12,0.1c0.8-0.1,1.7-0.1,2.5-0.2c38.9-3.5,73.7-31.8,70.7-64.8
		C383,74.1,338.2,51.8,295.6,55.6L295.6,55.6z"/>
	<path class="st1" d="M297.9,225c-56,0-111.8,34.3-111.8,76.5c0,43.4,48.8,76.1,99.9,76.1c1.1,0,2.2,0,3.3,0
		c4.8-0.1,10.1-0.8,15.6-1.5c6.1-0.8,12.5-1.5,19-1.7l3.2-0.1l3.2,0.6l49.9,32.9l-10.3-50.4l12-13.2c8-8.9,25.3-23.5,25.3-42.7
		C407.2,259.3,353.9,225,297.9,225L297.9,225z"/>
	<g>
		<line class="st1" x1="480.2" y1="328.5" x2="423.4" y2="328.5"/>
		<line class="st1" x1="457.4" y1="346.1" x2="415.6" y2="346.1"/>
		<path class="st1" d="M395.7,355c2.1,2.4,4.3,4.5,5.8,6.2l6.7,7.4l-16,28.2l38.2-18.4l1.8-0.4l1.8,0.1c3.7,0.1,7.2,0.5,10.6,1
			c3.1,0.4,6.1,0.8,8.8,0.8c0.6,0,1.2,0,1.8,0c28.6,0,55.9-18.3,55.9-42.6c0-23.6-31.2-42.8-62.6-42.8l0,0c-7.5,0-14.9,1.1-21.8,3.1
			"/>
	</g>
	<path class="st1" d="M166.3,300.2c-3.3-0.4-6.7-0.6-10.1-0.6l0,0c-31.4,0-61.3,19.3-61.3,42.9c0,10.8,9.7,19,14.2,24l6.7,7.4
		l-5.8,28.3l28-18.4l1.8-0.4l1.8,0.1c3.7,0.1,7.2,0.5,10.7,1c3.1,0.4,6.1,0.8,8.8,0.8c0.6,0,1.2,0,1.9,0c13.7,0,27.2-4.2,37.4-11.3"
		/>
	<g id="User_-_Orange">
		<line class="st1" x1="345.9" y1="95.6" x2="257.7" y2="95.6"/>
		<line class="st1" x1="345.9" y1="114.8" x2="257.7" y2="114.8"/>
		<line class="st1" x1="345.9" y1="133.9" x2="288.9" y2="133.9"/>
		<line class="st1" x1="239.1" y1="294" x2="354.7" y2="294"/>
		<line class="st1" x1="239.1" y1="303.4" x2="354.7" y2="303.4"/>
		<line class="st1" x1="239.1" y1="328.5" x2="313.8" y2="328.5"/>
		<line class="st1" x1="167.5" y1="332.7" x2="124.4" y2="332.7"/>
		<line class="st1" x1="173.8" y1="350.9" x2="124.4" y2="350.9"/>
	</g>
</g>
<linearGradient id="SVGID_3_" gradientUnits="userSpaceOnUse" x1="160.9219" y1="628.2614" x2="450.7458" y2="628.2614">
	<stop  offset="0" style="stop-color:#00FF99"/>
	<stop  offset="1" style="stop-color:#33CCFF"/>
</linearGradient>
<path class="st4" d="M160.9,628.3c90.6,0,199.1,0,289.8,0"/>
<linearGradient id="SVGID_4_" gradientUnits="userSpaceOnUse" x1="197.2771" y1="581.502" x2="259.1229" y2="581.502">
	<stop  offset="0" style="stop-color:#00FF99"/>
	<stop  offset="1" style="stop-color:#33CCFF"/>
</linearGradient>
<path class="st5" d="M199.8,628c0.9,0.1,1.5,0.1,2.2,0.1c17.4,0,34.8-0.1,52.2,0c2.2,0,2.5-0.9,2.5-2.8c-0.1-29.3-0.1-58.5,0-87.8
	c0-2.4-0.8-2.8-3-2.8c-17.1,0.1-34.1,0.1-51.2,0.1c-0.9,0-1.7,0.1-2.7,0.2C199.8,566.1,199.8,596.9,199.8,628z"/>
<linearGradient id="SVGID_5_" gradientUnits="userSpaceOnUse" x1="288.1266" y1="562.7184" x2="421.7875" y2="562.7184">
	<stop  offset="0" style="stop-color:#00FF99"/>
	<stop  offset="1" style="stop-color:#33CCFF"/>
</linearGradient>
<path class="st6" d="M291.1,535c-0.1,0.9-0.3,1.6-0.3,2.3c0,16.8,0,33.6-0.1,50.5c0,2.1,1.4,2.6,5,2.6c39.9-0.1,79.8,0,119.6,0
	c1.3,0,2.6-0.1,4-0.2c0-18.5,0-36.8,0-55.2C376.5,535,334,535,291.1,535z"/>
<linearGradient id="SVGID_6_" gradientUnits="userSpaceOnUse" x1="261.907" y1="424.1706" x2="349.087" y2="424.1706">
	<stop  offset="0" style="stop-color:#00FF99"/>
	<stop  offset="1" style="stop-color:#33CCFF"/>
</linearGradient>
<path class="st7" d="M305.2,427.8c-12.1,0-24.1,0-36.2,0c-1.2,0-2.7,0.3-3.5-0.2c-1.4-0.7-2.8-1.8-3.3-3c-0.7-1.6,0.4-3.1,2.5-3.7
	c1.1-0.3,2.3-0.4,3.5-0.4c25,0,50.1,0,75.1,0c2.6,0,4.8,0.5,5.7,2.8c0.9,2.6-1.2,4.6-5.1,4.6c-9.9,0-19.8,0-29.6,0
	C311.2,427.9,308.2,427.8,305.2,427.8C305.2,427.8,305.2,427.8,305.2,427.8z"/>
<linearGradient id="SVGID_7_" gradientUnits="userSpaceOnUse" x1="238.4997" y1="424.1565" x2="247.5813" y2="424.1565">
	<stop  offset="0" style="stop-color:#00FF99"/>
	<stop  offset="1" style="stop-color:#33CCFF"/>
</linearGradient>
<path class="st8" d="M247.6,424.2c0,2-2.1,3.6-4.7,3.6c-2.5,0-4.4-1.5-4.4-3.5c-0.1-2,2-3.8,4.5-3.8
	C245.4,420.5,247.6,422.2,247.6,424.2z"/>
<linearGradient id="SVGID_8_" gradientUnits="userSpaceOnUse" x1="363.4085" y1="424.136" x2="372.488" y2="424.136">
	<stop  offset="0" style="stop-color:#00FF99"/>
	<stop  offset="1" style="stop-color:#33CCFF"/>
</linearGradient>
<path class="st9" d="M363.4,424.1c0.1-2,2.3-3.7,4.8-3.6c2.5,0.1,4.4,1.9,4.3,3.9c-0.1,2-2.1,3.4-4.6,3.4
	C365.3,427.8,363.3,426.1,363.4,424.1z"/>
<linearGradient id="SVGID_9_" gradientUnits="userSpaceOnUse" x1="237.2578" y1="594.104" x2="244.7533" y2="594.104">
	<stop  offset="0" style="stop-color:#00FF99"/>
	<stop  offset="1" style="stop-color:#33CCFF"/>
</linearGradient>
<path class="st10" d="M244.8,594c0,2-1.7,3.8-3.7,3.8c-2.1,0-3.8-1.7-3.8-3.7c0-2,1.5-3.5,3.6-3.6C243,590.4,244.7,591.9,244.8,594z
	"/>
<linearGradient id="SVGID_10_" gradientUnits="userSpaceOnUse" x1="160.9219" y1="446.3995" x2="453.5195" y2="446.3995">
	<stop  offset="0" style="stop-color:#00FF99"/>
	<stop  offset="1" style="stop-color:#33CCFF"/>
</linearGradient>
<line class="st11" x1="160.9" y1="446.4" x2="453.5" y2="446.4"/>
<linearGradient id="SVGID_11_" gradientUnits="userSpaceOnUse" x1="137.7204" y1="480.6977" x2="474.2202" y2="480.6977">
	<stop  offset="0" style="stop-color:#00FF99"/>
	<stop  offset="1" style="stop-color:#33CCFF"/>
</linearGradient>
<line class="st12" x1="137.7" y1="480.7" x2="474.2" y2="480.7"/>
<linearGradient id="SVGID_12_" gradientUnits="userSpaceOnUse" x1="160.9219" y1="512.5428" x2="453.5195" y2="512.5428">
	<stop  offset="0" style="stop-color:#00FF99"/>
	<stop  offset="1" style="stop-color:#33CCFF"/>
</linearGradient>
<line class="st13" x1="160.9" y1="512.5" x2="453.5" y2="512.5"/>
<linearGradient id="SVGID_13_" gradientUnits="userSpaceOnUse" x1="247.3644" y1="616.2016" x2="315.6242" y2="616.2016" gradientTransform="matrix(6.123234e-17 1 -1 6.123234e-17 798.5441 197.856)">
	<stop  offset="0" style="stop-color:#00FF99"/>
	<stop  offset="1" style="stop-color:#33CCFF"/>
</linearGradient>
<polyline class="st14" points="191.7,446.4 173.3,480.7 173.3,513.5 "/>
<linearGradient id="SVGID_14_" gradientUnits="userSpaceOnUse" x1="248.5437" y1="510.492" x2="314.6867" y2="510.492" gradientTransform="matrix(6.123234e-17 1 -1 6.123234e-17 798.5441 197.856)">
	<stop  offset="0" style="stop-color:#00FF99"/>
	<stop  offset="1" style="stop-color:#33CCFF"/>
</linearGradient>
<line class="st15" x1="288.1" y1="446.4" x2="288.1" y2="512.5"/>
<linearGradient id="SVGID_15_" gradientUnits="userSpaceOnUse" x1="247.7039" y1="580.2596" x2="315.6242" y2="580.2596" gradientTransform="matrix(6.123234e-17 1 -1 6.123234e-17 798.5441 197.856)">
	<stop  offset="0" style="stop-color:#00FF99"/>
	<stop  offset="1" style="stop-color:#33CCFF"/>
</linearGradient>
<polyline class="st16" points="224.5,446.4 212.2,480.7 212.2,513.5 "/>
<linearGradient id="SVGID_16_" gradientUnits="userSpaceOnUse" x1="248.1048" y1="546.3782" x2="315.6242" y2="546.3782" gradientTransform="matrix(6.123234e-17 1 -1 6.123234e-17 798.5441 197.856)">
	<stop  offset="0" style="stop-color:#00FF99"/>
	<stop  offset="1" style="stop-color:#33CCFF"/>
</linearGradient>
<polyline class="st17" points="255.2,446.4 249.1,480.7 249.1,513.5 "/>
<linearGradient id="SVGID_17_" gradientUnits="userSpaceOnUse" x1="248.1048" y1="439.7583" x2="314.6865" y2="439.7583" gradientTransform="matrix(6.123234e-17 1 -1 6.123234e-17 798.5441 197.856)">
	<stop  offset="0" style="stop-color:#00FF99"/>
	<stop  offset="1" style="stop-color:#33CCFF"/>
</linearGradient>
<polyline class="st18" points="355.7,446.4 361.8,480.7 361.8,512.5 "/>
<linearGradient id="SVGID_18_" gradientUnits="userSpaceOnUse" x1="247.7039" y1="403.8383" x2="314.6865" y2="403.8383" gradientTransform="matrix(6.123234e-17 1 -1 6.123234e-17 798.5441 197.856)">
	<stop  offset="0" style="stop-color:#00FF99"/>
	<stop  offset="1" style="stop-color:#33CCFF"/>
</linearGradient>
<polyline class="st19" points="388.5,446.4 400.7,480.7 400.7,512.5 "/>
<linearGradient id="SVGID_19_" gradientUnits="userSpaceOnUse" x1="247.3644" y1="369.9349" x2="314.6865" y2="369.9349" gradientTransform="matrix(6.123234e-17 1 -1 6.123234e-17 798.5441 197.856)">
	<stop  offset="0" style="stop-color:#00FF99"/>
	<stop  offset="1" style="stop-color:#33CCFF"/>
</linearGradient>
<polyline class="st20" points="419.3,446.4 437.6,480.7 437.6,512.5 "/>
<linearGradient id="SVGID_20_" gradientUnits="userSpaceOnUse" x1="248.5437" y1="475.6445" x2="314.6867" y2="475.6445" gradientTransform="matrix(6.123234e-17 1 -1 6.123234e-17 798.5441 197.856)">
	<stop  offset="0" style="stop-color:#00FF99"/>
	<stop  offset="1" style="stop-color:#33CCFF"/>
</linearGradient>
<line class="st21" x1="322.9" y1="446.4" x2="322.9" y2="512.5"/>
<g id="RSS_-_Orange">
</g>
</svg>
