<?xml version="1.0" encoding="utf-8"?>
<!-- Generator: Adobe Illustrator 23.0.4, SVG Export Plug-In . SVG Version: 6.00 Build 0)  -->
<svg version="1.1" id="Layer_2" xmlns="http://www.w3.org/2000/svg" xmlns:xlink="http://www.w3.org/1999/xlink" x="0px" y="0px"
	 viewBox="6 -512 512 512" style="enable-background:new 6 -512 512 512;" xml:space="preserve">
<style type="text/css">
	.st0{fill:url(#SVGID_1_);}
	.st1{opacity:0.4;fill:#FFFFFF;}
	.st2{fill:none;stroke:#FFFFFF;stroke-width:5;stroke-miterlimit:10;}
	.st3{fill:url(#SVGID_2_);}
	.st4{fill:url(#SVGID_3_);}
	.st5{fill:url(#SVGID_4_);}
	.st6{fill:none;stroke:#FFFFFF;stroke-width:5;stroke-linecap:round;stroke-miterlimit:10;}
	.st7{fill:url(#SVGID_5_);}
	.st8{fill:#FFFFFF;}
	.st9{fill:url(#SVGID_6_);}
	.st10{fill:url(#SVGID_7_);}
	.st11{fill:url(#SVGID_8_);}
	.st12{fill:url(#SVGID_9_);}
	.st13{fill:url(#SVGID_10_);}
	.st14{fill:url(#SVGID_11_);}
	.st15{fill:url(#SVGID_12_);}
	.st16{fill:url(#SVGID_13_);}
	.st17{fill:#6CAA00;}
</style>
<linearGradient id="SVGID_1_" gradientUnits="userSpaceOnUse" x1="196.7452" y1="-207.0747" x2="267.006" y2="-207.0747">
	<stop  offset="0" style="stop-color:#00FF99"/>
	<stop  offset="1" style="stop-color:#33CCFF"/>
</linearGradient>
<path class="st0" d="M248.3-151.7h-32.8c-10.3,0-18.7-8.4-18.7-18.7v-92.1H267v92.1C267-160.1,258.6-151.7,248.3-151.7z"/>
<rect x="223.8" y="-317.4" class="st1" width="16.2" height="55"/>
<g>
	<line class="st2" x1="215.2" y1="-290.9" x2="215.2" y2="-317.4"/>
	<line class="st2" x1="248.6" y1="-290.9" x2="248.6" y2="-317.4"/>
</g>
<linearGradient id="SVGID_2_" gradientUnits="userSpaceOnUse" x1="217.493" y1="-354.8222" x2="246.2581" y2="-354.8222">
	<stop  offset="0" style="stop-color:#00FF99"/>
	<stop  offset="1" style="stop-color:#33CCFF"/>
</linearGradient>
<path class="st3" d="M231.9-329.4L231.9-329.4c-7.9,0-14.4-6.5-14.4-14.4v-22.1c0-7.9,6.5-14.4,14.4-14.4h0
	c7.9,0,14.4,6.5,14.4,14.4v22.1C246.3-335.9,239.8-329.4,231.9-329.4z"/>
<linearGradient id="SVGID_3_" gradientUnits="userSpaceOnUse" x1="94.7826" y1="-197.5949" x2="158.2875" y2="-197.5949">
	<stop  offset="0" style="stop-color:#00FF99"/>
	<stop  offset="1" style="stop-color:#33CCFF"/>
</linearGradient>
<path class="st4" d="M158.3-205c0-2.1-1.7-3.9-3.9-3.9H98.7c-2.1,0-3.9,1.7-3.9,3.9v18.6h63.5V-205z"/>
<linearGradient id="SVGID_4_" gradientUnits="userSpaceOnUse" x1="94.7826" y1="-178.1103" x2="158.2875" y2="-178.1103">
	<stop  offset="0" style="stop-color:#00FF99"/>
	<stop  offset="1" style="stop-color:#33CCFF"/>
</linearGradient>
<path class="st5" d="M98.7-172.3h55.7c2.1,0,3.9-1.7,3.9-3.9v-7.8H94.8v7.8C94.8-174,96.5-172.3,98.7-172.3z"/>
<path class="st2" d="M168.6-387.2c-5.9,0-42.1,0-42.1,0s-36.3,0-42.1,0c-5.9,0-6.8,3.2-6.3,6.8c0.5,3.6,16.2,162.1,16.7,166.2
	c0.5,4.1,0.1,6.8,7.5,6.8c7.4,0,24.3,0,24.3,0s16.9,0,24.3,0c7.4,0,7-2.7,7.5-6.8c0.5-4.1,16.2-162.6,16.7-166.2
	C175.4-384,174.5-387.2,168.6-387.2z"/>
<line class="st2" x1="79.5" y1="-375.5" x2="173.3" y2="-375.5"/>
<line class="st6" x1="206.9" y1="-303.5" x2="256.9" y2="-303.5"/>
<linearGradient id="SVGID_5_" gradientUnits="userSpaceOnUse" x1="94.7826" y1="-329.7772" x2="158.2875" y2="-329.7772">
	<stop  offset="0" style="stop-color:#00FF99"/>
	<stop  offset="1" style="stop-color:#33CCFF"/>
</linearGradient>
<path class="st7" d="M126.5-361.5c-17.5,0-31.8,14.2-31.8,31.8c0,17.5,14.2,31.8,31.8,31.8c17.5,0,31.8-14.2,31.8-31.8
	C158.3-347.3,144.1-361.5,126.5-361.5z M131.4-320.8l1-2.3h0c0.2,0,0.3-0.2,0.4-0.3c0.2-0.4,0.4-0.7,0.6-1.1l0.4-0.8l0.2,0.3
	l1.5-2.8l0.3,0.4l1.2-2.3l0.2,0.7l0.5-1c0.1-0.3,0.3-0.5,0.4-0.7c0.1-0.2,0.2-0.3,0.3-0.5l0.2,0.6l1.3-2.1l0.2,0.3l0.9-1.4v0.3
	l0.6-0.7c0.1-0.1,0.2-0.2,0.3-0.3c0.1-0.1,0.2-0.2,0.3-0.3c0.2-0.2,0.3-0.4,0.5-0.6c0,0,0.1-0.1,0.1-0.1c0,0,0,0,0-0.1
	c0.2,0.1,0.5-0.1,0.6-0.2c0.2-0.2,0.4-0.4,0.6-0.6c0.2-0.2,0.3-0.3,0.4-0.5c0,0,0.1-0.1,0.1-0.1l0.2,0.3l1.7-1.5l0.1,0.4l1.8-1.7
	l0.1,0.3l2.5-1.8l-1.3,2l0.1,0.2c0,0,0,0.1,0.1,0.2c0,0,0.1,0,0.1,0.1c0,0-0.1,0.1-0.1,0.1c-0.1,0.1-0.2,0.2-0.3,0.3
	c-0.2,0.2-0.3,0.3-0.5,0.5c-0.1,0.1-0.1,0.2-0.2,0.3c0,0-0.1,0.1-0.1,0.1l-0.2,0.3l0.4,0.1l-1.3,1.8l0.7,0.1l-1.4,1.8l0.6,0.1
	l-1.3,1.5l0.7,0.1l-1.4,1.4l0.4,0.2l-1.6,1.6l0.4,0.1l-1.8,1.4l0.6,0.1l-1.3,0.9l0.3,0.2l-2,1.1l0.1,0.4c0,0-0.1,0-0.1,0.1
	c-0.2,0.1-0.4,0.2-0.6,0.3c-0.1,0-0.1,0-0.2,0.1c-0.2,0.1-0.5,0.3-0.7,0.6c0,0.1-0.2,0.1-0.3,0.2c-0.1,0-0.2,0.1-0.2,0.1
	c-0.1,0.1-0.3,0.1-0.4,0.2l-0.7,0.3l0.4,0.2c-0.2,0.1-0.4,0.2-0.6,0.3c-0.2,0.1-0.5,0.2-0.7,0.3c-0.1,0.1-0.3,0.2-0.4,0.4
	c0,0.1,0,0.2,0.1,0.3c-0.4,0.2-0.8,0.3-1.2,0.5l-0.2,0.1c0,0-0.1,0-0.1,0.1l-0.5,0.2l0.2,0.3l-1.9,0.8l-0.2,0.4l0.1,0.1l-1.6,0.8
	l0.3,0.3l-4,2.6c0.1-0.2,0.3-0.4,0.4-0.6c0.2-0.3,0.4-0.6,0.6-1.1c0.2-0.3,0.4-0.7,0.6-1.1c0.2-0.4,0.4-0.7,0.5-1.1
	c0.1-0.2,0.2-0.4,0.3-0.7l0.3,0.5l0.9-2.5L131.4-320.8z M102.2-341.1c0.5,0.4,1,0.8,1.5,1.2c0,0,0.1,0,0.1,0.1
	c0.1,0.1,0.4,0.4,0.8,0.2l0,0c0.2,0.2,0.4,0.4,0.6,0.6c0.1,0.2,0.3,0.3,0.4,0.4c0.1,0.1,0.2,0.2,0.3,0.2l0.4,0.4l0.2-0.4l1.7,1.6
	l0.2-0.4l1.4,1.7l0.2-0.2l1.4,1.7l0.2-0.2l1.3,1.9l0.1-0.4c0.1,0.2,0.2,0.4,0.3,0.6c0.2,0.3,0.3,0.6,0.6,0.9l0.3,0.4l0.1-0.5
	c0.2,0.2,0.3,0.5,0.4,0.8c0.1,0.3,0.3,0.6,0.4,0.9l0.3,0.5l0.2-0.6l1.2,2.3l0.3-0.4l1.5,2.8l0.2-0.3c0.1,0.2,0.2,0.4,0.3,0.6
	c0.2,0.3,0.4,0.7,0.6,1v0c0,0.1,0.1,0.2,0.3,0.3c0.1,0,0.1,0,0.2,0c0,0,0,0,0,0c0.2,0.3,0.3,0.7,0.5,1.1l0.3,0.6
	c0.1,0.1,0.1,0.2,0.2,0.3l0.3,0.7l0.3-0.4l0.9,2.6l0.2-0.5c0,0,0.1,0.1,0.1,0.2c0.6,1.7,1.4,3.1,2.2,4.4l-3.9-2.7l0.2,0l-1.7-0.9
	l0.3-0.3l-2.2-1l0.1-0.1l-0.1-0.2c0,0-0.1-0.1-0.2-0.2l-0.6-0.2c-0.4-0.1-0.7-0.3-1.1-0.4h0c0.1-0.1,0.1-0.1,0.1-0.2
	c0-0.1-0.1-0.3-0.3-0.4c-0.3-0.1-0.5-0.2-0.7-0.4c-0.1,0-0.3-0.1-0.4-0.2l0.4-0.1l-0.4-0.4c0,0-0.1-0.1-0.1-0.1
	c-0.1,0-0.1-0.1-0.2-0.2c-0.1-0.1-0.2-0.1-0.3-0.2c-0.1,0-0.2-0.1-0.3-0.2c0,0-0.1-0.1-0.1-0.1c-0.2-0.1-0.2-0.1-0.3-0.2
	c0-0.2-0.2-0.3-0.3-0.3l0,0c-0.2-0.1-0.4-0.2-0.7-0.4c-0.2-0.1-0.3-0.2-0.5-0.3l0.6-0.2l-2.3-1.4l0.3-0.2l-1.2-0.9l0.4-0.1l-0.3-0.4
	c0,0-0.1-0.1-0.1-0.1c-0.1-0.1-0.1-0.2-0.2-0.2c-0.2-0.1-0.4-0.3-0.6-0.4c-0.2-0.1-0.4-0.3-0.6-0.4l-0.1-0.1c0,0,0,0,0,0
	c0.2-0.2,0-0.6-0.1-0.6c-0.2-0.2-0.4-0.4-0.6-0.6c-0.1-0.1-0.2-0.2-0.3-0.4c0,0,0,0,0-0.1l0.5-0.2l-1.4-1.4l0.8,0l-1.3-1.6l0.4-0.1
	l-0.1-0.3c-0.2-0.4-0.4-0.7-0.7-1c-0.1-0.2-0.3-0.4-0.4-0.6l0.5-0.2L104-337l0.4-0.2l-0.5-0.5c-0.2-0.2-0.4-0.4-0.6-0.6
	c-0.1,0-0.1-0.1-0.2-0.2c-0.1-0.1-0.1-0.2-0.2-0.2c0,0,0.1,0,0.1,0l0.4-0.2l-1.4-2.2L102.2-341.1z M122.2-310.2l-0.1-0.3l-1.9,1.4
	l0-0.1l-0.4-0.2l-1.2,0.8l0.1-0.4l-1.8,0.9l0.1-0.3l-1.8,0.7l0-0.3l-3,1l0.6-0.4c0.5-0.3,0.9-0.7,1.4-1c0.1-0.1,0.4-0.3,0.3-0.6
	c0,0,0,0,0,0c0,0,0,0,0,0c0.2-0.1,0.4-0.2,0.6-0.3c0.2-0.1,0.4-0.2,0.6-0.3c0.1-0.1,0.2-0.1,0.3-0.2c0,0,0-0.1,0.1-0.1l0.3-0.2
	l-0.3-0.2l2.3-0.8l-0.4-0.3l2.6-0.5l-0.4-0.2c0.3,0,0.6,0,0.8-0.1h0c0.1,0,0.3,0,0.4-0.2c0.1-0.1,0.1-0.1,0.1-0.3l0.3,0
	c0.2,0,0.4,0,0.6,0c0.7-0.1,1.4-0.1,2.1-0.2l0.7-0.1C124.1-312.2,123.2-311.3,122.2-310.2z M125.7-313.4c-0.2,0.1-0.3,0.2-0.5,0.4
	l0-0.5c-0.3,0-0.5,0-0.8,0c-1.2,0-2.4,0.1-3.6,0.2c-0.4,0-0.9,0.1-1.3,0.1l0.6-0.6l-3.1,0.5l0.4-0.6l-2.7,0.4l0.4-0.5l-2.4,0.3
	l0.5-0.5l-2.8-0.2l0.2-0.1l-0.1-0.4l-2.2-0.4l0.4-0.3l-0.1-0.4l-1.9-0.3l0.2-0.1l-0.1-0.4l-1.7-0.3l0.6-0.3l-1.9-0.5l0.7-0.4
	l-0.7-0.2c-0.3,0-0.6-0.1-0.9-0.1c-0.2,0-0.4-0.1-0.6-0.1l0.5-0.3l-1.2-0.3c-0.3-0.1-0.6-0.1-1-0.2c-0.3-0.1-0.5-0.1-0.8-0.2l2-0.2
	l-0.1-0.3l1.7,0.2l0.5,0l-0.2-0.5c0,0,0,0,0.1,0c0.3,0,0.6,0.1,0.9,0.1c0.2,0,0.5,0.1,0.7,0.1c0.1,0,0.4,0,0.5-0.1
	c0-0.1,0.1-0.1,0.1-0.2c0.4,0,0.7,0.1,1.1,0.2c0.2,0,0.4,0.1,0.7,0.1c0.1,0,0.2,0,0.3,0c0,0,0.1,0,0.1,0l0.4,0l-0.1-0.4l2.2,0.8
	l0-0.6l2,1.1l0.2-0.5l1.9,1.1v-0.4l1.7,1.4v-0.6l1.9,1.4l0.1-0.6l1.7,1.4l0.3-0.3c0.6,0.3,1.3,0.7,1.9,1.1c1,0.6,2.1,1.2,3.2,1.7
	l0.2-0.3c0,0,0.1,0.1,0.1,0.1l0.4,0.2L125.7-313.4z M151.5-318.9c-0.1,0-0.3,0-0.4,0.1l-0.7,0.2l0.3,0.3l-2.3,0.4l0.8,0.4l-1.9,0.4
	l0.5,0.3l-2.2,0.4l0.6,0.5l-2,0.3l0,0.5l0.3,0.2c-0.2,0-0.5,0.1-0.7,0.1c-0.5,0-0.9,0.1-1.4,0.3l-0.5,0.2l0.5,0.4l-2.8,0.1l0.5,0.5
	l-2.4-0.3l0.4,0.5l-2.6-0.3l0.3,0.5l-2.4-0.5l-0.2,0.4l0.1,0.1c-2.2-0.3-3.9-0.4-5.6-0.4l-0.1,0.5c0.4,0.1,0.9,0.1,1.3,0.2l0.5,0.1
	c0.5,0.1,1,0.1,1.5,0.2h0c0,0.2,0.2,0.4,0.5,0.4h0.2c0.2,0,0.5,0,0.8,0.1h0l-0.3,0.3l2.5,0.5l-0.5,0.3l2.3,0.8l-0.3,0.2l0.5,0.3
	c0.1,0.1,0.2,0.1,0.3,0.2c0.2,0.1,0.3,0.1,0.4,0.2c0.2,0.1,0.4,0.2,0.6,0.3c0,0,0,0,0.1,0c0,0.4,0.2,0.6,0.4,0.7c0,0,0.1,0,0.1,0.1
	c0.6,0.5,1.1,0.9,1.7,1.3l0.1,0l-3.3-1.1l0.3,0.4c0,0,0,0-0.1,0c-0.4-0.2-0.8-0.4-1.3-0.5l-0.5-0.1l0.1,0.2l-1.7-0.9l0,0.4l-1.7-1.2
	l0.2,0.7l-1.8-1.3l-0.1,0.3c-1-1.2-2.1-2.4-3.6-3.3l-0.3-0.2l-0.3-1c0-0.2-0.1-0.4-0.2-0.6c-0.1-0.3-0.2-0.6-0.3-1
	c-0.3-0.7-0.5-1.5-0.7-2.3c0-0.1-0.1-0.2-0.1-0.4c-0.1-0.4-0.2-0.9-0.4-1.3c-0.1-0.3-0.2-0.5-0.4-0.8c0,0-0.1-0.1-0.1-0.2
	c0,0,0.1-0.1,0.1-0.1c0.1-0.2,0-0.4,0-0.5l-0.1-0.4c-0.1-0.3-0.2-0.6-0.2-0.9c0,0,0-0.1,0-0.1l0.3,0l-0.8-2.1l0.1,0v-0.2
	c0,0,0-0.1,0-0.1l-0.2-0.6c-0.1-0.4-0.2-0.7-0.4-1.2c0,0,0-0.1,0-0.1s0-0.1,0-0.1c0.2-0.1,0.2-0.4,0.2-0.5c-0.1-0.5-0.2-0.9-0.2-1.4
	l-0.1-0.6l0.5,0.2l-0.5-2.6l0.4,0.2l-0.4-2.8l0.5,0l-0.2-1.9l0.4,0.2l-0.2-2.2l0.4,0.2l-0.3-2.5l0.6,0.2l-0.2-2.4c0,0,0.1,0,0.1-0.1
	c0.2-0.1,0.2-0.4,0.2-0.5c0-0.3,0-0.5,0-0.8c0-0.2,0-0.3,0-0.5v0c0,0,0.1,0,0.1-0.1c0.2-0.1,0.2-0.3,0.3-0.5c0-0.2,0-0.3,0.1-0.5
	c0-0.2,0.1-0.4,0.1-0.6c0,0,0-0.1,0-0.1c0,0,0,0,0-0.1c0.3,0,0.4-0.5,0.4-0.5c0-0.2,0.1-0.4,0.1-0.7c0-0.2,0-0.3,0.1-0.5
	c0,0,0-0.1,0-0.1s0-0.1,0-0.1c0.3,0,0.4-0.4,0.4-0.5c0-0.2,0.1-0.4,0.1-0.7c0-0.2,0.1-0.4,0.1-0.6v-0.1c0,0,0-0.1,0-0.1c0,0,0,0,0,0
	c0.2,0,0.3-0.2,0.4-0.5c0.1-0.6,0.2-1.1,0.3-1.7c0,0.2,0.1,0.4,0.1,0.6l0,0.2c0,0.2,0.1,0.5,0.1,0.7c0,0,0,0.1,0,0.1
	c0,0.2,0.1,0.5,0.4,0.6c0,0,0,0.1,0,0.1c0,0.2,0.1,0.5,0.1,0.7c0.1,0.2,0.1,0.5,0.2,0.7v0c0,0.1,0,0.3,0.2,0.3
	c0.1,0,0.1,0.1,0.2,0.1c0,0.2,0,0.3,0.1,0.5c0,0.2,0,0.3,0.1,0.5c0,0,0,0.1,0,0.1c0,0.2,0,0.6,0.4,0.7c0,0,0,0.1,0,0.1
	c0,0.2,0.1,0.3,0.1,0.5c0,0.2,0.1,0.4,0.1,0.6v0.1c0.1,0.3,0.2,0.5,0.4,0.5c0,0.5,0,0.9,0,1.4c0,0.1,0,0.3,0.2,0.5
	c0,0,0.1,0,0.1,0.1l-0.3,2.4l0.7-0.2l-0.3,2.3l0.4-0.1v0c0,0.4-0.1,0.7-0.1,1l-0.1,0.6c0,0.1,0,0.1,0,0.2l0,0.5l0.4-0.1l-0.1,0.9
	c0,0.1,0,0.2,0,0.2c0,0.2,0,0.4,0.1,0.5c0.1,0.1,0.2,0.1,0.3,0.1l-0.4,2.4l0.4,0l-0.6,2.7l0.5-0.1v0c-0.1,0.3-0.1,0.7-0.2,1
	c0,0.2-0.1,0.3-0.1,0.5c0,0.2-0.1,0.3-0.1,0.5c0,0.1,0,0.3,0.1,0.5c0,0,0,0.1,0.1,0.1l-0.7,2.3l0.3,0c0,0.1-0.1,0.2-0.1,0.4
	c-0.1,0.1-0.1,0.3-0.2,0.4c-0.1,0.2-0.2,0.4-0.3,0.7c0,0,0,0,0,0.1c-0.1,0.1-0.1,0.2-0.1,0.4c0,0,0,0.1,0.1,0.2
	c-0.1,0.2-0.1,0.4-0.2,0.6c-0.1,0.2-0.2,0.5-0.3,0.7c-0.1,0.3-0.1,0.5,0.1,0.6l-0.1,0.2c-0.1,0.3-0.3,0.6-0.4,0.9
	c0,0.1-0.1,0.1-0.1,0.2c-0.1,0.3-0.3,0.6-0.1,1c0,0.1,0,0.2-0.1,0.2c0,0,0,0.1,0,0.1c-0.3,0.9-0.7,1.8-1,2.8l-0.4,1
	c0,0.1-0.1,0.2,0,0.5l0.1,0.6l0.1-0.2l0.2,0.2l5.3-2.9l0,0.6l2.1-1.7l0.1,0.6l1.8-1.3l-0.1,0.7l1.9-1.5l0.1,0.4l1.8-1v0.6l2.2-1.1
	l-0.2,0.6l2.4-0.9l-0.1,0.6l2.6-0.5c0,0.1,0,0.2,0.1,0.3c0.2,0.1,0.4,0.1,0.5,0.1l1.8-0.2l-0.3,0.5l2.2-0.2l-0.1,0.3l2,0.3
	c-0.1,0-0.3,0-0.4,0.1C152.3-319.1,151.9-319,151.5-318.9z"/>
<path class="st8" d="M231.9-235.1c-12.8,0-23.2,10.4-23.2,23.2c0,12.8,10.4,23.2,23.2,23.2c12.8,0,23.2-10.4,23.2-23.2
	C255-224.7,244.7-235.1,231.9-235.1z M235.4-205.4l0.8-1.7h0c0.2,0,0.2-0.1,0.3-0.2c0.1-0.3,0.3-0.5,0.4-0.8l0.3-0.6l0.1,0.2l1.1-2
	l0.2,0.3l0.9-1.7l0.2,0.5l0.3-0.7c0.1-0.2,0.2-0.4,0.3-0.5c0.1-0.1,0.1-0.3,0.2-0.4l0.1,0.5l0.9-1.5l0.2,0.2l0.7-1v0.2l0.5-0.5
	c0.1-0.1,0.1-0.1,0.2-0.2c0.1-0.1,0.1-0.2,0.2-0.3c0.1-0.1,0.2-0.3,0.4-0.4c0,0,0-0.1,0.1-0.1c0,0,0,0,0,0c0.2,0.1,0.3-0.1,0.4-0.2
	c0.1-0.1,0.3-0.3,0.4-0.4c0.1-0.1,0.2-0.3,0.3-0.4c0,0,0-0.1,0.1-0.1l0.1,0.2l1.2-1.1l0.1,0.3l1.3-1.2l0.1,0.2l1.8-1.3l-0.9,1.5
	l0,0.1c0,0,0,0.1,0.1,0.1c0,0,0,0,0.1,0c0,0,0,0-0.1,0.1c-0.1,0.1-0.1,0.2-0.2,0.3c-0.1,0.1-0.3,0.3-0.3,0.4c0,0.1-0.1,0.1-0.1,0.2
	c0,0,0,0.1-0.1,0.1l-0.1,0.2l0.3,0.1l-0.9,1.3l0.5,0l-1,1.3l0.4,0.1l-1,1.1l0.5,0.1l-1,1l0.3,0.2l-1.2,1.2l0.3,0.1l-1.3,1.1l0.4,0.1
	l-0.9,0.7l0.2,0.1l-1.5,0.8l0.1,0.3c0,0,0,0-0.1,0c-0.1,0.1-0.3,0.2-0.4,0.2c0,0-0.1,0-0.1,0.1c-0.2,0.1-0.4,0.2-0.5,0.4
	c0,0.1-0.1,0.1-0.2,0.1c-0.1,0-0.1,0.1-0.2,0.1c-0.1,0.1-0.2,0.1-0.3,0.2l-0.5,0.3l0.3,0.2c-0.1,0.1-0.3,0.1-0.4,0.2
	c-0.2,0.1-0.3,0.2-0.5,0.2c-0.1,0.1-0.2,0.1-0.3,0.3c0,0.1,0,0.1,0,0.2c-0.3,0.1-0.6,0.2-0.9,0.3l-0.2,0.1c0,0-0.1,0-0.1,0l-0.3,0.1
	l0.2,0.2l-1.4,0.6l-0.1,0.3l0.1,0l-1.2,0.6l0.2,0.2l-2.9,1.9c0.1-0.1,0.2-0.3,0.3-0.4c0.1-0.2,0.3-0.5,0.5-0.8
	c0.1-0.3,0.3-0.5,0.4-0.8c0.2-0.3,0.3-0.5,0.4-0.8c0.1-0.2,0.1-0.3,0.2-0.5l0.2,0.3l0.7-1.8L235.4-205.4z M214.1-220.2
	c0.4,0.3,0.7,0.6,1.1,0.9c0,0,0,0,0.1,0c0.1,0.1,0.3,0.3,0.6,0.1l0,0c0.1,0.2,0.3,0.3,0.4,0.4c0.1,0.1,0.2,0.2,0.3,0.3
	c0.1,0.1,0.1,0.1,0.2,0.2l0.3,0.3l0.1-0.3l1.2,1.2l0.1-0.3l1.1,1.2l0.1-0.2l1,1.2l0.1-0.2l0.9,1.4l0.1-0.3c0.1,0.1,0.2,0.3,0.2,0.4
	c0.1,0.2,0.2,0.4,0.4,0.6l0.2,0.3l0.1-0.4c0.1,0.2,0.2,0.4,0.3,0.6c0.1,0.2,0.2,0.4,0.3,0.6l0.2,0.4l0.2-0.5l0.9,1.7l0.2-0.3
	l1.1,2.1l0.1-0.2c0.1,0.2,0.2,0.3,0.2,0.5c0.1,0.3,0.3,0.5,0.4,0.8v0c0,0.1,0.1,0.2,0.2,0.2c0,0,0.1,0,0.1,0c0,0,0,0,0,0
	c0.1,0.3,0.2,0.5,0.3,0.8l0.2,0.4c0,0.1,0.1,0.2,0.1,0.3l0.2,0.5l0.2-0.3l0.7,1.9l0.2-0.3c0,0,0,0.1,0.1,0.1c0.5,1.2,1,2.3,1.6,3.2
	l-2.8-1.9l0.1,0l-1.2-0.7l0.2-0.2l-1.6-0.7l0.1-0.1l-0.1-0.1c0,0,0-0.1-0.1-0.1l-0.4-0.2c-0.3-0.1-0.5-0.2-0.8-0.3h0
	c0,0,0.1-0.1,0-0.2c0-0.1-0.1-0.2-0.2-0.3c-0.2-0.1-0.4-0.2-0.5-0.3c-0.1,0-0.2-0.1-0.3-0.1l0.3-0.1l-0.3-0.3c0,0,0,0-0.1-0.1
	c0,0-0.1-0.1-0.1-0.1c-0.1-0.1-0.2-0.1-0.2-0.1c-0.1,0-0.1-0.1-0.2-0.1c0,0-0.1,0-0.1-0.1c-0.1-0.1-0.2-0.1-0.2-0.2
	c0-0.1-0.1-0.2-0.2-0.2l0,0c-0.2-0.1-0.3-0.2-0.5-0.3c-0.1-0.1-0.2-0.1-0.3-0.2l0.4-0.1l-1.7-1l0.2-0.1l-0.9-0.7l0.3-0.1l-0.2-0.3
	c0,0,0-0.1-0.1-0.1c-0.1-0.1-0.1-0.1-0.2-0.2c-0.1-0.1-0.3-0.2-0.4-0.3c-0.1-0.1-0.3-0.2-0.4-0.3l0,0c0,0,0,0,0,0
	c0.1-0.2,0-0.4-0.1-0.5c-0.2-0.2-0.3-0.3-0.5-0.5c-0.1-0.1-0.2-0.2-0.2-0.3c0,0,0,0,0,0l0.3-0.2l-1-1l0.6,0l-0.9-1.2l0.3-0.1
	l-0.1-0.2c-0.1-0.3-0.3-0.5-0.5-0.7c-0.1-0.1-0.2-0.3-0.3-0.4l0.4-0.2l-0.8-1.2l0.3-0.1l-0.3-0.4c-0.1-0.2-0.3-0.3-0.4-0.5
	c0,0-0.1-0.1-0.1-0.1c0-0.1-0.1-0.1-0.1-0.2c0,0,0,0,0.1,0l0.3-0.1L214.1-220.2L214.1-220.2z M228.7-197.6l-0.1-0.3l-1.4,1l0-0.1
	l-0.3-0.2l-0.9,0.6l0-0.3l-1.3,0.7l0-0.2l-1.3,0.5l0-0.2l-2.2,0.7l0.4-0.3c0.3-0.3,0.7-0.5,1-0.8c0.1-0.1,0.3-0.2,0.2-0.4
	c0,0,0,0,0,0c0,0,0,0,0,0c0.1-0.1,0.3-0.2,0.4-0.2c0.1-0.1,0.3-0.1,0.4-0.2c0.1,0,0.1-0.1,0.2-0.1c0,0,0,0,0.1-0.1l0.2-0.2l-0.2-0.1
	l1.6-0.6l-0.3-0.2l1.9-0.3l-0.3-0.2c0.2,0,0.4,0,0.6-0.1h0c0.1,0,0.2,0,0.3-0.1c0,0,0.1-0.1,0.1-0.2l0.2,0c0.1,0,0.3,0,0.4,0
	c0.5-0.1,1-0.1,1.5-0.1l0.5-0.1C230.1-199.1,229.4-198.4,228.7-197.6z M231.3-200c-0.1,0.1-0.2,0.2-0.4,0.3l0-0.4
	c-0.2,0-0.4,0-0.6,0c-0.9,0-1.7,0.1-2.7,0.2c-0.3,0-0.6,0.1-0.9,0.1l0.4-0.4l-2.3,0.4l0.3-0.4l-2,0.3l0.3-0.4l-1.8,0.2l0.4-0.4
	l-2.1-0.1l0.1-0.1L220-201l-1.6-0.3l0.3-0.2l-0.1-0.3l-1.4-0.2l0.1-0.1l-0.1-0.3l-1.2-0.2l0.4-0.2l-1.4-0.4l0.5-0.3l-0.5-0.1
	c-0.2,0-0.4-0.1-0.6-0.1c-0.2,0-0.3,0-0.4-0.1l0.4-0.2l-0.9-0.2c-0.2-0.1-0.5-0.1-0.7-0.2c-0.2,0-0.4-0.1-0.6-0.1l1.5-0.2l-0.1-0.3
	l1.3,0.1l0.4,0l-0.2-0.3c0,0,0,0,0,0c0.3,0,0.5,0,0.7,0.1c0.2,0,0.3,0,0.5,0.1c0.1,0,0.3,0,0.4-0.1c0,0,0.1-0.1,0.1-0.2
	c0.3,0,0.5,0.1,0.8,0.2c0.2,0,0.3,0.1,0.5,0.1c0.1,0,0.1,0,0.2,0c0,0,0.1,0,0.1,0l0.3,0l-0.1-0.3l1.6,0.6l0-0.4l1.5,0.8l0.1-0.3
	l1.4,0.8v-0.3l1.2,1v-0.4l1.4,1l0.1-0.4l1.2,1l0.2-0.2c0.5,0.3,0.9,0.5,1.4,0.8c0.8,0.4,1.5,0.9,2.3,1.2l0.1-0.2
	c0,0,0.1,0.1,0.1,0.1l0.3,0.2L231.3-200z M250.1-204c-0.1,0-0.2,0-0.3,0.1l-0.5,0.1l0.2,0.2l-1.7,0.3l0.6,0.3l-1.4,0.3l0.4,0.2
	l-1.6,0.3l0.4,0.3l-1.5,0.2l0,0.3l0.2,0.2c-0.2,0-0.3,0.1-0.5,0.1c-0.3,0-0.7,0.1-1.1,0.2l-0.4,0.1l0.4,0.3l-2.1,0.1l0.4,0.4
	l-1.7-0.2l0.3,0.4l-1.9-0.2l0.2,0.4l-1.8-0.3l-0.1,0.3l0,0c-1.6-0.2-2.8-0.3-4.1-0.3l0,0.4c0.3,0.1,0.6,0.1,0.9,0.1l0.4,0
	c0.4,0,0.8,0.1,1.1,0.1h0c0,0.2,0.1,0.3,0.4,0.3h0.1c0.2,0,0.4,0,0.6,0h0l-0.2,0.2l1.8,0.4l-0.3,0.2l1.7,0.6l-0.2,0.1l0.4,0.2
	c0.1,0.1,0.1,0.1,0.2,0.1c0.1,0.1,0.2,0.1,0.3,0.2c0.1,0.1,0.3,0.2,0.4,0.2c0,0,0,0,0,0c0,0.3,0.2,0.4,0.3,0.5c0,0,0,0,0.1,0
	c0.4,0.3,0.8,0.7,1.2,1l0,0l-2.4-0.8l0.2,0.3c0,0,0,0,0,0c-0.3-0.1-0.6-0.3-0.9-0.3l-0.3-0.1l0,0.2l-1.3-0.7l0,0.3l-1.3-0.9l0.1,0.5
	l-1.3-0.9l-0.1,0.2c-0.7-0.9-1.5-1.8-2.6-2.4l-0.2-0.1l-0.2-0.7c0-0.1-0.1-0.3-0.1-0.4c-0.1-0.2-0.2-0.5-0.2-0.7
	c-0.2-0.5-0.4-1.1-0.5-1.7c0-0.1,0-0.2-0.1-0.3c-0.1-0.3-0.1-0.6-0.3-1c-0.1-0.2-0.2-0.4-0.3-0.6c0,0,0-0.1-0.1-0.1c0,0,0,0,0.1-0.1
	c0.1-0.1,0-0.3,0-0.4l-0.1-0.3c-0.1-0.2-0.1-0.4-0.2-0.6c0,0,0,0,0-0.1l0.2,0l-0.6-1.5l0.1,0v-0.2c0,0,0-0.1,0-0.1l-0.1-0.4
	c-0.1-0.3-0.2-0.5-0.3-0.8c0,0,0-0.1,0-0.1s0,0,0-0.1c0.1-0.1,0.1-0.3,0.1-0.4c-0.1-0.3-0.1-0.7-0.2-1L229-212l0.3,0.1l-0.4-1.9
	l0.3,0.1l-0.3-2l0.3,0l-0.1-1.4l0.3,0.1l-0.2-1.6l0.3,0.1l-0.2-1.8l0.5,0.1l-0.2-1.8c0,0,0.1,0,0.1-0.1c0.1-0.1,0.2-0.3,0.2-0.4
	c0-0.2,0-0.4,0-0.6c0-0.1,0-0.2,0-0.3v0c0,0,0.1,0,0.1,0c0.1-0.1,0.2-0.2,0.2-0.3c0-0.1,0-0.2,0-0.3c0-0.2,0-0.3,0.1-0.4
	c0,0,0,0,0-0.1c0,0,0,0,0,0c0.2,0,0.3-0.4,0.3-0.4c0-0.2,0.1-0.3,0.1-0.5c0-0.1,0-0.3,0-0.4c0,0,0,0,0-0.1c0,0,0,0,0-0.1
	c0.2,0,0.3-0.3,0.3-0.3c0-0.2,0.1-0.3,0.1-0.5c0-0.1,0.1-0.3,0.1-0.4v0c0,0,0-0.1,0-0.1c0,0,0,0,0,0c0.1,0,0.2-0.2,0.3-0.4
	c0.1-0.4,0.2-0.8,0.3-1.2c0,0.2,0.1,0.3,0.1,0.5l0,0.1c0,0.2,0.1,0.4,0.1,0.5c0,0,0,0,0,0.1c0,0.1,0.1,0.3,0.3,0.4c0,0,0,0.1,0,0.1
	c0,0.2,0.1,0.3,0.1,0.5c0,0.2,0.1,0.4,0.1,0.5v0c0,0.1,0,0.2,0.1,0.3c0,0,0.1,0,0.1,0c0,0.1,0,0.2,0,0.4c0,0.1,0,0.2,0,0.4
	c0,0,0,0.1,0,0.1c0,0.1,0,0.4,0.3,0.5c0,0,0,0,0,0.1c0,0.1,0,0.2,0.1,0.3c0,0.2,0.1,0.3,0.1,0.4v0c0,0.2,0.2,0.4,0.3,0.4
	c0,0.3,0,0.7,0,1c0,0.1,0,0.2,0.1,0.3c0,0,0.1,0,0.1,0l-0.2,1.8l0.5-0.1l-0.2,1.7l0.3-0.1v0c0,0.3-0.1,0.5-0.1,0.7l0,0.4
	c0,0,0,0.1,0,0.1l0,0.4l0.3-0.1l-0.1,0.7c0,0.1,0,0.1,0,0.2c0,0.2,0,0.3,0.1,0.4c0.1,0.1,0.1,0.1,0.2,0.1l-0.3,1.8l0.3,0l-0.4,1.9
	l0.3-0.1v0c0,0.3-0.1,0.5-0.1,0.7c0,0.1,0,0.2-0.1,0.3c0,0.1,0,0.3-0.1,0.4c0,0.1,0,0.2,0.1,0.3c0,0,0,0,0.1,0.1l-0.5,1.7l0.2,0
	c0,0.1-0.1,0.2-0.1,0.3c0,0.1-0.1,0.2-0.1,0.3c-0.1,0.2-0.1,0.3-0.2,0.5c0,0,0,0,0,0c0,0.1-0.1,0.2,0,0.3c0,0,0,0.1,0.1,0.1
	c0,0.1-0.1,0.3-0.1,0.4c-0.1,0.2-0.1,0.4-0.2,0.5c-0.1,0.2-0.1,0.3,0.1,0.4l-0.1,0.2c-0.1,0.2-0.2,0.4-0.3,0.7c0,0.1,0,0.1-0.1,0.1
	c-0.1,0.2-0.2,0.4-0.1,0.7c0,0,0,0.1,0,0.2c0,0,0,0.1,0,0.1c-0.2,0.7-0.5,1.3-0.7,2l-0.3,0.8c0,0.1-0.1,0.2,0,0.3l0.1,0.4l0.1-0.2
	l0.1,0.2l3.9-2.1l0,0.4l1.5-1.2l0.1,0.4l1.3-1l-0.1,0.5l1.4-1.1l0.1,0.3l1.3-0.8v0.4l1.6-0.8l-0.1,0.4l1.7-0.6l-0.1,0.4l1.9-0.4
	c0,0.1,0,0.2,0.1,0.2c0.1,0.1,0.3,0.1,0.4,0.1l1.3-0.1l-0.2,0.4l1.6-0.2l-0.1,0.3l1.5,0.2c-0.1,0-0.2,0-0.3,0.1
	C250.7-204.1,250.4-204,250.1-204z"/>
<linearGradient id="SVGID_6_" gradientUnits="userSpaceOnUse" x1="206.879" y1="-325.302" x2="256.8722" y2="-325.302">
	<stop  offset="0" style="stop-color:#00FF99"/>
	<stop  offset="1" style="stop-color:#33CCFF"/>
</linearGradient>
<path class="st9" d="M251.3-310.4h-38.8c-3.1,0-5.6-2.5-5.6-5.6v-18.5c0-3.1,2.5-5.6,5.6-5.6h38.8c3.1,0,5.6,2.5,5.6,5.6v18.5
	C256.9-313,254.3-310.4,251.3-310.4z"/>
<path class="st2" d="M243.3-151.7h-22.9c-13,0-23.7-10.7-23.7-23.7v-91.9c0-13,10.7-23.7,23.7-23.7h22.9c13,0,23.7,10.7,23.7,23.7
	v91.9C267-162.3,256.3-151.7,243.3-151.7z"/>
<g>
	
		<linearGradient id="SVGID_7_" gradientUnits="userSpaceOnUse" x1="315.1178" y1="-342.4473" x2="365.1375" y2="-342.4473" gradientTransform="matrix(0.9853 -0.1706 0.1706 0.9853 33.8362 91.4693)">
		<stop  offset="0" style="stop-color:#00FF99"/>
		<stop  offset="1" style="stop-color:#33CCFF"/>
	</linearGradient>
	<path class="st10" d="M326.5-314.4l-17.2,3l2.6,14.9l17.2-3c4.1-0.7,6.9-4.6,6.1-8.7C334.5-312.3,330.6-315.1,326.5-314.4z"/>
	<path class="st8" d="M292.1-308.4c-4.1,0.7-6.9,4.6-6.1,8.7c0.7,4.1,4.6,6.9,8.7,6.1l17.2-3l-2.6-14.9L292.1-308.4z"/>
</g>
<g>
	
		<linearGradient id="SVGID_8_" gradientUnits="userSpaceOnUse" x1="439.2566" y1="-239.7523" x2="489.2763" y2="-239.7523" gradientTransform="matrix(-0.4701 0.8826 -0.8826 -0.4701 306.4898 -875.4252)">
		<stop  offset="0" style="stop-color:#00FF99"/>
		<stop  offset="1" style="stop-color:#33CCFF"/>
	</linearGradient>
	<path class="st11" d="M298.3-334l8.2-15.4l-13.3-7.1l-8.2,15.4c-2,3.7-0.6,8.3,3.1,10.2C291.7-328.9,296.3-330.3,298.3-334z"/>
	<path class="st8" d="M314.7-364.8c2-3.7,0.6-8.3-3.1-10.2c-3.7-2-8.3-0.6-10.2,3.1l-8.2,15.4l13.3,7.1L314.7-364.8z"/>
</g>
<g>
	
		<linearGradient id="SVGID_9_" gradientUnits="userSpaceOnUse" x1="559.8298" y1="-346.8161" x2="609.8494" y2="-346.8161" gradientTransform="matrix(-0.4701 0.8826 -0.8826 -0.4701 306.4898 -875.4252)">
		<stop  offset="0" style="stop-color:#00FF99"/>
		<stop  offset="1" style="stop-color:#33CCFF"/>
	</linearGradient>
	<path class="st12" d="M336.1-177.2l8.2-15.4l-13.3-7.1l-8.2,15.4c-2,3.7-0.6,8.3,3.1,10.2S334.2-173.6,336.1-177.2z"/>
	<path class="st8" d="M352.5-208.1c2-3.7,0.6-8.3-3.1-10.2s-8.3-0.6-10.2,3.1l-8.2,15.4l13.3,7.1L352.5-208.1z"/>
</g>
<g>
	
		<linearGradient id="SVGID_10_" gradientUnits="userSpaceOnUse" x1="486.9442" y1="-401.0049" x2="536.9639" y2="-401.0049" gradientTransform="matrix(-0.8032 -0.5956 0.5956 -0.8032 994.3938 -355.1681)">
		<stop  offset="0" style="stop-color:#00FF99"/>
		<stop  offset="1" style="stop-color:#33CCFF"/>
	</linearGradient>
	<path class="st13" d="M325.8-342.3l14,10.4l9-12.1l-14-10.4c-3.3-2.5-8.1-1.8-10.6,1.6S322.5-344.8,325.8-342.3z"/>
	<path class="st8" d="M353.8-321.5c3.3,2.5,8.1,1.8,10.6-1.6s1.8-8.1-1.6-10.6l-14-10.4l-9,12.1L353.8-321.5z"/>
</g>
<g>
	
		<linearGradient id="SVGID_11_" gradientUnits="userSpaceOnUse" x1="246.5728" y1="-162.0061" x2="296.5925" y2="-162.0061" gradientTransform="matrix(0.9396 0.3423 -0.3423 0.9396 5.9368 -186.5167)">
		<stop  offset="0" style="stop-color:#00FF99"/>
		<stop  offset="1" style="stop-color:#33CCFF"/>
	</linearGradient>
	<path class="st14" d="M335.6-246.9l-16.4-6l-5.2,14.2l16.4,6c3.9,1.4,8.3-0.6,9.7-4.5S339.5-245.4,335.6-246.9z"/>
	<path class="st8" d="M302.7-258.8c-3.9-1.4-8.3,0.6-9.7,4.5c-1.4,3.9,0.6,8.3,4.5,9.7l16.4,6l5.2-14.2L302.7-258.8z"/>
</g>
<g>
	
		<linearGradient id="SVGID_12_" gradientUnits="userSpaceOnUse" x1="593.0336" y1="-366.26" x2="643.0532" y2="-366.26" gradientTransform="matrix(-0.9814 0.1921 -0.1921 -0.9814 883.5388 -755.5337)">
		<stop  offset="0" style="stop-color:#00FF99"/>
		<stop  offset="1" style="stop-color:#33CCFF"/>
	</linearGradient>
	<path class="st15" d="M331.7-266.6l17.1-3.4l-2.9-14.8l-17.1,3.4c-4.1,0.8-6.8,4.8-6,8.9C323.6-268.5,327.6-265.8,331.7-266.6z"/>
	<path class="st8" d="M366-273.3c4.1-0.8,6.8-4.8,6-8.9c-0.8-4.1-4.8-6.8-8.9-6l-17.1,3.4l2.9,14.8L366-273.3z"/>
</g>
<g>
	
		<linearGradient id="SVGID_13_" gradientUnits="userSpaceOnUse" x1="607.2686" y1="-577.9172" x2="657.2883" y2="-577.9172" gradientTransform="matrix(-0.5083 -0.8612 0.8612 -0.5083 1095.9949 -150.0592)">
		<stop  offset="0" style="stop-color:#00FF99"/>
		<stop  offset="1" style="stop-color:#33CCFF"/>
	</linearGradient>
	<path class="st16" d="M261.5-412l8.9,15l13-7.7l-8.9-15c-2.1-3.6-6.8-4.8-10.3-2.7C260.6-420.3,259.4-415.6,261.5-412z"/>
	<path class="st8" d="M279.3-382c2.1,3.6,6.8,4.8,10.3,2.7c3.6-2.1,4.8-6.8,2.7-10.3l-8.9-15l-13,7.7L279.3-382z"/>
</g>
<g>
	<path class="st17" d="M362.5-218.6c7,9.6,6,19.5,0.7,29.2c-9.2,16.6-22.1,29.6-39.3,37.8c-8.3,4-16.9,4.4-25.4-0.6
		c-1.3-0.8-4,0.1-5.6,0.9c-30.5,16.4-63.1,24-97.6,21.9C111-134.3,42.6-194,26.1-276.7C8.1-366.6,60.8-457.8,148.2-485
		c70-21.7,133-7,185.8,44.1c57.7,55.8,70.2,145.4,31.8,216C364.8-222.8,363.6-220.8,362.5-218.6z M205-466.7
		C118.6-466.6,49.6-397,50.5-309.2c0.9,86.8,72.7,153.8,157.6,152.3c81.4-1.5,151.9-67.1,152-155.6
		C360.2-397.4,290.1-466.8,205-466.7z"/>
	<path class="st17" d="M336.2-136.5c20.1-9.3,34.8-23.7,43.8-44.6c1.1,0.9,2.3,1.8,3.5,2.8c36.9,33.4,73.6,67,110.6,100.3
		c6,5.4,7.5,11.5,6,18.9c-4.1,20.3-23.3,39.1-43.7,42.5c-6.3,1.1-11.8-0.1-16.3-5.1c-34-37.5-68-74.9-102-112.4
		C337.3-134.8,336.8-135.7,336.2-136.5z"/>
</g>
</svg>
