<?xml version="1.0" encoding="utf-8"?>
<!-- Generator: Adobe Illustrator 23.0.4, SVG Export Plug-In . SVG Version: 6.00 Build 0)  -->
<svg version="1.1" id="Layer_1" xmlns="http://www.w3.org/2000/svg" xmlns:xlink="http://www.w3.org/1999/xlink" x="0px" y="0px"
	 viewBox="0 0 612 792" style="enable-background:new 0 0 612 792;" xml:space="preserve">
<style type="text/css">
	.st0{fill:none;stroke:#FFFFFF;stroke-width:5;stroke-miterlimit:10;}
	.st1{fill:none;stroke:url(#SVGID_1_);stroke-miterlimit:10;}
	.st2{fill:#6CAA00;}
	.st3{fill:none;stroke:url(#SVGID_2_);stroke-width:5;stroke-miterlimit:10;}
	.st4{fill:none;stroke:url(#SVGID_3_);stroke-width:5;stroke-miterlimit:10;}
	.st5{fill:none;stroke:url(#SVGID_4_);stroke-width:5;stroke-miterlimit:10;}
	.st6{fill:none;stroke:url(#SVGID_5_);stroke-width:5;stroke-miterlimit:10;}
	.st7{fill:none;stroke:url(#SVGID_6_);stroke-width:5;stroke-miterlimit:10;}
</style>
<path class="st0" d="M491.5,432.7h29.1c4.8,0,8.7-3.9,8.7-8.7v-84.5c0-4.8-3.9-8.7-8.7-8.7H350.5V160.6c0-4.8-3.9-8.7-8.7-8.7h-84.5
	c-4.8,0-8.7,3.9-8.7,8.7v170.1H78.4c-4.8,0-8.7,3.9-8.7,8.7V424c0,4.8,3.9,8.7,8.7,8.7h32.7"/>
<polyline class="st0" points="350.5,498.2 350.5,432.7 401.8,432.7 "/>
<path class="st0" d="M391.2,657.3"/>
<polyline class="st0" points="202.1,432.7 248.5,432.7 248.5,495.2 "/>
<path class="st0" d="M288.7,649.7c0-6.1,10.2-22.4,11-22.4s11,16.3,11,22.4s-4.9,11-11,11S288.7,655.8,288.7,649.7z"/>
<path class="st0" d="M280,724.7c0-10.9,18.2-39.9,19.7-39.9c1.4,0,19.7,29.1,19.7,39.9s-8.8,19.7-19.7,19.7S280,735.6,280,724.7z"/>
<linearGradient id="SVGID_1_" gradientUnits="userSpaceOnUse" x1="302" y1="359.6" x2="302" y2="359.6" gradientTransform="matrix(1 0 0 -1 0 652)">
	<stop  offset="0" style="stop-color:#6666FF"/>
	<stop  offset="1" style="stop-color:#897DE4"/>
</linearGradient>
<path class="st1" d="M302,292.4"/>
<circle class="st2" cx="580.8" cy="391.9" r="3"/>
<circle class="st2" cx="529.9" cy="305.6" r="3"/>
<circle class="st2" cx="470.6" cy="268.2" r="3"/>
<circle class="st2" cx="561.6" cy="324" r="3"/>
<circle class="st2" cx="501.1" cy="286.3" r="3"/>
<circle class="st2" cx="446.5" cy="254" r="3"/>
<circle class="st2" cx="419.6" cy="240.6" r="3"/>
<circle class="st2" cx="394.2" cy="225.7" r="3"/>
<circle class="st2" cx="368.2" cy="212.3" r="3"/>
<circle class="st2" cx="580.8" cy="356.2" r="3"/>
<circle class="st2" cx="580.8" cy="426.4" r="3"/>
<circle class="st2" cx="580.8" cy="461.8" r="3"/>
<circle class="st2" cx="580.8" cy="495.2" r="3"/>
<circle class="st2" cx="580.8" cy="531.7" r="3"/>
<circle class="st2" cx="494.5" cy="688.3" r="3"/>
<circle class="st2" cx="580.8" cy="635.3" r="3"/>
<circle class="st2" cx="580.8" cy="565.4" r="3"/>
<circle class="st2" cx="580.8" cy="601.1" r="3"/>
<circle class="st2" cx="555.3" cy="654.9" r="3"/>
<circle class="st2" cx="526.8" cy="670.9" r="3"/>
<circle class="st2" cx="463.4" cy="703.2" r="3"/>
<circle class="st2" cx="432.5" cy="721.1" r="3"/>
<circle class="st2" cx="401.8" cy="737.5" r="3"/>
<circle class="st2" cx="371.7" cy="752.3" r="3"/>
<circle class="st2" cx="340.8" cy="769.6" r="3"/>
<circle class="st2" cx="312.2" cy="787" r="3"/>
<circle class="st2" cx="280.1" cy="780.4" r="3"/>
<circle class="st2" cx="247.5" cy="761.5" r="3"/>
<circle class="st2" cx="220.2" cy="746.4" r="3"/>
<circle class="st2" cx="157.8" cy="711.6" r="3"/>
<circle class="st2" cx="125.1" cy="694.7" r="3"/>
<circle class="st2" cx="188.1" cy="727" r="3"/>
<circle class="st2" cx="231.2" cy="216.5" r="3"/>
<circle class="st2" cx="199.1" cy="230.8" r="3"/>
<circle class="st2" cx="66.1" cy="660.3" r="3"/>
<circle class="st2" cx="97.9" cy="677.2" r="3"/>
<circle class="st2" cx="36.3" cy="644" r="3"/>
<circle class="st2" cx="30.4" cy="611.6" r="3"/>
<circle class="st2" cx="30.4" cy="579.4" r="3"/>
<circle class="st2" cx="30.4" cy="542.5" r="3"/>
<circle class="st2" cx="30.4" cy="510.2" r="3"/>
<circle class="st2" cx="30.4" cy="473.5" r="3"/>
<circle class="st2" cx="30.4" cy="440.9" r="3"/>
<circle class="st2" cx="30.4" cy="405" r="3"/>
<circle class="st2" cx="30.4" cy="369.1" r="3"/>
<circle class="st2" cx="169" cy="243.9" r="3"/>
<circle class="st2" cx="139.2" cy="258.9" r="3"/>
<circle class="st2" cx="30.4" cy="333.5" r="3"/>
<circle class="st2" cx="48.1" cy="308.6" r="3"/>
<circle class="st2" cx="108.1" cy="277.2" r="3"/>
<circle class="st2" cx="78.4" cy="292.4" r="3"/>
<g>
	
		<linearGradient id="SVGID_2_" gradientUnits="userSpaceOnUse" x1="171.247" y1="162.7964" x2="300.5766" y2="162.7964" gradientTransform="matrix(1 0 0 -1 0 792)">
		<stop  offset="0" style="stop-color:#00FF99"/>
		<stop  offset="1" style="stop-color:#33CCFF"/>
	</linearGradient>
	<path class="st3" d="M204.5,634.4c0.5,2.2-1.8,4.1-2.5,4.8c-3.6,2.8-7.5,5.6-11.2,8.4L186,651l24.5-8.1l-0.2,2.6l15-5.5l-0.5,2.6
		l14.7-7.3l-0.5,3l9.6-6.7l3.1,2l-0.2,1.1l15.5-11.2l0.7,2.8c7.5-8.9,15.3-16.4,24.2-23.1l-5.8,0.6c-5.6,0.6-11.3,1-17.2,1.6
		c-1.6,0.2-3.4,0.2-5,0.4l-2.1,0.2l0,0c0,1.1-0.2,1.7-0.7,2.2c-0.9,1.1-2.3,1.3-3.2,1.3h-0.2c-2.3,0.2-4.6,0.4-6.8,0.6l2.9,2
		l-21.3,3.7l3.1,2.2l-18.4,6.4l2.5,1.5l-2.7,1.7c-0.5,0.2-0.7,0.5-0.9,0.7c-0.7,0.5-1.4,0.8-2.1,1.3c-1.4,0.8-3,1.5-4.6,2.4
		C207.7,632.7,206.1,633.3,204.5,634.4C204.5,634.2,204.5,634.4,204.5,634.4z"/>
	
		<linearGradient id="SVGID_3_" gradientUnits="userSpaceOnUse" x1="266.6883" y1="334.1806" x2="537.9661" y2="334.1806" gradientTransform="matrix(1 0 0 -1 0 792)">
		<stop  offset="0" style="stop-color:#00FF99"/>
		<stop  offset="1" style="stop-color:#33CCFF"/>
	</linearGradient>
	<path class="st4" d="M386.7,643.7l26.6,9.1l-0.5-0.2c-4.7-3.5-9.4-7.1-13.9-10.8c-0.2-0.2-0.5-0.5-0.7-0.5
		c-1.4-0.9-3.6-2.4-3.3-5.5c-0.2,0-0.2-0.2-0.5-0.2c-1.6-0.9-3.3-1.7-4.9-2.7c-1.1-0.7-2.3-1.1-3.6-1.7c-0.7-0.5-1.4-0.7-2.1-1.3
		l-4-2.7l2.7-1.5l-19.1-6.7l3.9-2.1l-20.3-4.1l2.7-2.1h-0.2c-2.1-0.2-4.3-0.2-6.3-0.5h-1.4c-2.5-0.2-3.8-1.1-4-3.1h-0.2
		c-4.1-0.5-8.4-0.9-12.6-1.4l-4.1-0.5c-3.4-0.5-7-0.7-10.6-1.4l0.5-4.3c13.6-0.1,27.8,0.9,45.4,3.4l-0.5-0.5l1.4-3.5l19.8,3.9
		l-2.2-4.2l21.4,2.6l-2.9-4l19.2,2.7l-4-4.4l23.1-1.1l-4-2.9l4.3-1.3c4.1-1.3,7.9-1.9,11.8-2.3c2.1-0.2,3.9-0.6,5.8-0.8l-2.7-1.7
		l0.2-3.7l16.3-2.3l-4.7-3.7l17.9-2.9l-4.3-2.7l15.2-3.6l-6.3-3.6l18.5-2.9l-2.5-2.2l5.5-1.5c1.1-0.5,2.3-0.6,3.4-0.8
		c3.4-0.6,6.8-1.4,10.2-2.1c1.1-0.2,2.1-0.5,3.2-0.6l-16.7-2.3l1.1-2.8l-18.3,1.8l2.1-4.1l-14.3,1.4c-0.9,0-2.7,0.2-4-0.9
		c-0.7-0.5-0.9-1.3-1.1-2.2l-21.5,4.2l1.1-4.6l-19.5,7.1l1.4-4.8l-17.7,8.6v-4.6l-14.7,8.4l-0.9-3l-15.5,12.1l0.7-5.5l-14.8,10.8
		l-0.8-4.8L349,581.2l0.3-5l-43.2,24l-1.4-2l-1.1,1.7l-1.1-4.8c-0.5-1.7,0-2.8,0.2-3.7l3-8.5c2.8-7.6,5.5-15,8.1-22.6
		c0-0.2,0.2-0.5,0.2-0.8c0.2-0.5,0.7-1.5,0.5-2c-0.9-3.3,0.3-5.8,1.2-8.1c0.2-0.5,0.5-0.8,0.7-1.5c0.9-2.6,1.8-5,3-7.4l0.7-1.7
		c-1.4-1.3-1.6-2.7-0.8-5c0.7-2,1.4-4.1,2.1-6.1c0.5-1.5,1.1-3,1.6-4.6c-0.5-0.5-0.7-0.9-0.9-1.3c-0.7-1.5,0-2.8,0.5-3.5
		c0-0.2,0.2-0.2,0.2-0.5c0.7-2,1.4-3.9,2.3-5.6c0.5-1.1,0.9-2.2,1.4-3.3c0.5-1.1,0.7-2,1.1-3l-2.1-0.2l5.8-18.7
		c-0.5-0.2-0.7-0.5-0.9-0.7c-1.1-1.3-0.9-3-0.7-3.9c0.2-1.3,0.5-2.8,0.7-4.1s0.5-2.6,0.7-3.9c0.5-2.6,0.9-5.5,1.4-8.3v-0.2l-3.9,1.1
		l4.9-21.7l-3-0.2l3.1-19.8c-0.9,0-1.6-0.2-2.3-0.9c-1.1-1.1-1.1-2.4-0.8-4.3c0-0.7,0.2-1.3,0.2-2l1-7.4l-3.2,1.1l0.2-4.1
		c0-0.5,0-0.8,0-1.3l0.5-4.8c0.2-2.6,0.7-5.2,1-8.1v-0.2l0,0l-3.4,1.1l2.2-19.1l-5.5,1.5l2.2-19.6c-0.2-0.2-0.7-0.2-0.9-0.5
		c-1.4-1.1-1.4-2.8-1.5-3.7c0-3.7-0.2-7.6-0.2-11.3c-1.8-0.2-3.1-1.5-3.6-4.2V337c-0.2-1.7-0.7-3.3-0.8-5c-0.2-1.3-0.5-2.6-0.7-3.9
		c0-0.2-0.2-0.5-0.2-0.7c-3.4-1.1-3.3-4.2-3.3-5.7c0-0.5,0-0.7,0-1.1c-0.2-1.3-0.2-2.6-0.5-4c-0.2-1.5-0.2-2.8-0.5-4.2
		c-0.5,0-0.9-0.2-1.4-0.5c-1.4-0.7-1.6-2.2-1.6-2.8v-0.2c-0.5-2-0.8-4.2-1.3-6.1c-0.5-1.7-0.9-3.7-1.1-5.5c0-0.2-0.2-0.5-0.2-0.8
		c-2.5-1.1-2.9-3.5-3.3-5c0-0.2,0-0.5-0.2-0.7c-0.5-2-0.8-4.2-1.1-6.1l-0.2-1.5c-0.2-1.7-0.7-3.5-0.8-5.2c-0.9,4.6-1.9,8.9-2.8,13.5
		c-0.5,2.6-1.6,3.9-3,4.3c-0.2,0-0.2,0-0.2,0c0,0.2-0.2,0.7-0.2,0.8v0.5c-0.2,1.5-0.7,3.3-0.9,4.8c-0.2,2-0.7,3.7-1.1,5.6
		c0,0.5-0.9,3.9-3.4,3.9l0,0l0,0c0,0.2,0,0.5,0,0.7s0,0.5,0,0.7c-0.2,1.5-0.2,2.8-0.5,4.3c-0.2,2-0.5,3.9-0.8,5.6
		c0,0-0.7,4.3-3.4,4.3l0,0c0,0.2,0,0.2,0,0.5c0,0.2,0,0.5,0,0.7c-0.2,1.7-0.5,3.3-0.7,5c-0.2,1.3-0.5,2.4-0.5,3.7
		c-0.2,1.1-0.5,2.8-2.1,3.7c-0.2,0.2-0.7,0.2-0.9,0.5v0.2c0,1.3-0.2,2.6-0.2,3.9c0,2.2-0.2,4.1-0.3,6.3c0,1.3-0.2,3.3-1.8,4.3
		c-0.2,0.2-0.7,0.5-1.1,0.6l1.7,19.8l-5.2-1.6l2.1,20.1l-3.3-1.5l1.7,18.3l-3-1.4l1.4,15.3L270,425l3.2,22.7l-3.1-1.5l4.1,21
		l-3.8-1.4l0.8,4.8c0.7,4,1.3,7.7,2,11.5c0.2,1.3,0.2,3.5-1.4,4.3l0,0c0,0.2,0.2,0.5,0.2,0.7s0.2,0.7,0.2,0.8
		c0.9,3.3,1.7,6.3,2.9,9.4l1.5,5c0.2,0.5,0.2,0.8,0,1.1v2l-1.1,0.2l6.2,17l-2.3,0.4c0,0.2,0.2,0.5,0.2,0.7c0.7,2.4,1.3,4.6,2,7
		l0.9,3c0.2,1.1,0.7,2.6-0.2,4c-0.2,0.2-0.5,0.5-0.7,0.7c0.2,0.5,0.5,0.9,0.7,1.3c0.9,2.2,2,4.4,2.9,6.5c1.7,3.5,2.4,7.2,3.1,10.7
		c0.2,1.1,0.5,2,0.7,3c1.5,6.3,3.5,12.7,5.7,18.8c0.9,2.7,1.7,5.2,2.7,7.9c0.5,1.5,0.9,3,1.3,4.6l2.4,7.9l2.3,1.3
		c12.2,7.1,21.3,16.9,29.4,27l1.1-2.6l14.4,10.3l0,0l-1.3-5.7l14.1,9.7l-0.2-3l14,7.3l-0.5-1.7l3.8,0.9c3.6,0.9,7,2.4,10.3,3.8
		c0.2,0,0.2,0,0.5,0.2L386.7,643.7z"/>
	
		<linearGradient id="SVGID_4_" gradientUnits="userSpaceOnUse" x1="67.3407" y1="219.5131" x2="303.3866" y2="219.5131" gradientTransform="matrix(1 0 0 -1 0 792)">
		<stop  offset="0" style="stop-color:#00FF99"/>
		<stop  offset="1" style="stop-color:#33CCFF"/>
	</linearGradient>
	<path class="st5" d="M285.5,598.7c2.1,0,4.1,0,6.3,0.3l0.2,4.2c1.4-1.1,2.7-2,4.1-3l2.7-2l-2.9-1.7c-0.5-0.2-0.9-0.5-1.1-0.9
		l-1.6,2.6c-8.8-4.4-17.3-9.3-25.7-13.9c-4.9-2.9-10.1-5.8-15.3-8.6l-2.7,2.4L236,566.7l-0.7,4.6L219.6,560v4.6l-13.7-11v3.3
		l-15.7-9l-1.4,3.9l-16.6-8.7l0.4,4.8l-18-6.9l1.1,3.5l-3.4-0.2c-0.5,0-0.7,0-1.1,0c-0.9,0-1.6,0-2.3-0.2c-1.8-0.5-3.6-0.7-5.4-1.1
		c-3-0.7-6.1-1.4-9-1.8c-0.2,0.8-0.7,1.5-1.1,2c-1.4,1.1-3.2,1.1-4.3,0.8c-2.1-0.2-3.9-0.5-5.8-0.7c-2.5-0.2-4.9-0.5-7.7-0.7
		c-0.2,0-0.5,0-0.5,0l1.7,3.7l-4.1-0.2l-14.1-1.4l1.1,2.8l-16.3,1.9c2.3,0.5,4.3,1.1,6.5,1.6c2.7,0.7,5.2,1.1,7.9,1.8l9.5,2.3
		l-4.1,2.4c1.6,0.2,3.2,0.5,4.9,0.7c2.3,0.2,4.7,0.7,7,1.1l5.8,1.4l-5.9,3l15.3,4l-4.6,2.6l13.5,2.3l1.1,3.5l-1.6,0.8l15.6,2.3
		l0.9,3.5l-3,2.1l18.1,3.4l1.1,3.5l-1.4,0.8l23.2,1.5l-4.1,4.1l19.7-2.7l-3.6,4.3l22.4-2.9l-3.2,4.6l25.4-4.4l-4.6,4.6
		c3.6-0.2,7.2-0.6,10.6-1C266,599.6,275.8,598.6,285.5,598.7z"/>
	
		<linearGradient id="SVGID_5_" gradientUnits="userSpaceOnUse" x1="301.12" y1="308.2768" x2="511.0251" y2="308.2768" gradientTransform="matrix(1 0 0 -1 0 792)">
		<stop  offset="0" style="stop-color:#00FF99"/>
		<stop  offset="1" style="stop-color:#33CCFF"/>
	</linearGradient>
	<path class="st6" d="M328.8,555c-0.7,2-1.6,3.9-2.3,5.6c-1.4,3.3-2.7,6.3-4.4,9.3c-1.6,3.3-3.2,6.3-4.8,9.1
		c-2.1,3.7-3.6,6.3-5.2,8.9c-1.1,1.5-2.3,3.3-3.2,4.8l32.7-21.5l-2.3-2.2l12.9-6.7l-0.9-0.5l1.4-3.5l15.4-6.6l-1.8-2.4l3.9-1.3
		c0.5-0.2,0.9-0.2,1.1-0.5l1.8-0.6c3.4-1.3,6.8-2.6,10-3.9c-0.5-0.9-0.7-1.7-0.5-2.4c0.5-1.7,2.1-2.4,3.2-3c1.8-0.8,3.9-1.7,5.7-2.6
		c1.6-0.6,3.2-1.5,4.8-2.1l-3.6-1.7l5.5-2.8c1.1-0.6,2.3-1.1,3.4-1.7c0.5-0.2,1.1-0.6,1.8-0.8c0.9-0.5,2.1-0.8,2.3-1.5
		c1.6-2.6,3.9-3.9,5.9-4.9c0.5-0.2,0.9-0.5,1.4-0.6c1.6-0.8,3.2-1.7,4.8-2.6c0.2-0.2,0.5-0.2,0.7-0.5l-1.1-3.3l16.3-9.3l-2.7-1.3
		l10.3-7.5l-4.7-1.1l14.8-11.8l-3-0.9l13.2-13.4l-3.3-2l11.2-11.2l-6.1-0.7l10.7-12.3l-4.9-0.9l11.4-14.5l-5.4-0.5l10.5-14.7l-3-1.1
		l1.6-2.4c0.2-0.5,0.5-0.7,0.7-1.1c0.5-0.8,1.1-1.7,1.6-2.4c1.1-1.3,2.5-2.8,3.9-4.1c0.9-0.8,1.8-2,2.5-2.8c0.2-0.2,0.5-0.5,0.7-0.7
		c-0.2-0.2-0.5-0.2-0.7-0.5c-0.7-0.5-0.9-1.1-0.9-1.3l-0.5-1.3l10.3-16.3l-20.4,14.9l-0.9-2.7l-14.4,13.8l-1.1-3.5l-13.7,12.3
		l-1.6-2.7c-0.2,0.2-0.5,0.5-0.7,0.8c-1.1,1.3-2.3,2.6-3.6,4.1c-1.6,1.7-3,3.5-4.6,4.9c-1.1,1.3-3,2.8-4.8,1.9l0,0
		c0,0.2-0.2,0.2-0.2,0.5c-0.2,0.2-0.5,0.7-0.7,0.8c-1.4,1.5-2.7,3.3-4.1,4.8c-0.7,0.8-1.6,2-2.3,2.8c-0.7,0.7-1.1,1.3-2.1,2.1
		l-5.2,5.6v-2.4l-7.7,11.4l-1.8-2.2l-10.3,16.9l-1.5-5.2c-0.9,1.5-1.6,3-2.5,4.3c-1.1,2-2.1,3.9-3.2,6.1l-3.9,8.1l-2-5.9l-9.7,18.5
		l-2.4-3.3l-12.6,22.8l-1.6-2.7l-3.6,6.5c-1.6,2.8-3.2,5.6-4.8,8.7c-0.5,0.7-1.1,2.2-3,2.1h-0.2l-8.5,19.1l-3.6-0.9l-7.6,20
		L328.8,555z"/>
	
		<linearGradient id="SVGID_6_" gradientUnits="userSpaceOnUse" x1="94.3596" y1="309.5722" x2="301.3378" y2="309.5722" gradientTransform="matrix(1 0 0 -1 0 792)">
		<stop  offset="0" style="stop-color:#00FF99"/>
		<stop  offset="1" style="stop-color:#33CCFF"/>
	</linearGradient>
	<path class="st7" d="M260,570.6l31.7,21.6c-7.1-10.3-13.1-22.1-18.2-35.9c-0.2-0.5-0.5-1.1-0.7-1.5l-1.8,3.9l-7.5-21l-2.1,3.5
		l-2.7-5.7c-0.5-1.1-0.9-2-1.4-2.8l-2.2-5c-1.4-2.8-2.4-5.9-3.8-8.7c0,0,0-0.2-0.2-0.2c-0.5,0-0.9,0-1.4-0.2
		c-1.4-0.5-1.8-1.7-2.1-2.4V516c-1.6-2.8-3.1-5.7-4.7-8.5c-0.9-1.7-1.7-3.5-2.7-5.2l-1.6,2.6l-12-23.2l-2.3,3.5l-9.6-18.8l-1.8,5.2
		l-2.4-4.4c-1.4-2.4-2.4-4.8-3.6-7c-1.1-2.2-2-4.6-3.3-6.5l-1.1,4.3l-2.7-3.5c-1.8-2.4-3.1-4.8-4.5-7.2c-0.9-1.5-1.7-3-2.7-4.6
		l-1.1,3.3l-10.3-15.3l-1.6,1.7l-11.2-13.6l-1.6,1.7L155,406.7l-1.4,3l-13.9-13l-1.6,3.3l-3.3-3.1c-0.7-0.7-1.6-1.3-2.3-2
		c-1.1-1.1-2.3-2.2-3.3-3.5c-1.6-1.7-3.1-3.3-4.7-5l-0.2-0.2c-3.2,1.5-5.4-0.5-6.5-1.6c-0.2-0.2-0.5-0.5-0.7-0.5
		c-4.3-3.1-8.3-6.4-12.6-9.7l-0.9-0.7l11.4,18.2l-3,1.3c-0.2,0-0.5,0.2-0.7,0.2c0.5,0.7,1.1,1.3,1.6,2c0.5,0.5,0.9,1.1,1.4,1.5
		c1.6,1.7,3.1,3.5,4.7,5.2l3.8,4.4l-3.6,1.5l9,13.4l-4.3,1.7c1.1,1.5,2.2,3,3.3,4.6c2.1,2.4,4,5,5.6,8.1l1.1,2.4l-3.4,0.8l10.3,13.4
		l-6.3-0.1l11.2,11.4l-3.9,1.9c0,0.2,0.2,0.2,0.2,0.5c0.9,0.9,1.8,1.7,2.7,2.9c1.8,1.7,3.3,3.5,5.2,5.2c0.5,0.5,2.4,3.5,0.8,5.2
		c0,0,0,0,0.2,0.2l0.5,0.5c1.4,1.1,2.9,2.4,4.5,3.5s2.9,2.4,4.5,3.5c0.7,0.7,1.1,1.1,1.8,2c0.2,0.2,0.5,0.7,0.7,0.9l2.4,2.9
		l-3.6,0.6l9.9,7.7l-2.3,1.3l19.1,11.7l-4.6,1.3c1.4,0.7,2.5,1.5,3.8,2.2c1.8,1.1,3.6,2,5.4,3.1l0.2,0.2c0.9,0.5,2.3,1.3,2.4,2.7
		c0.2,0.7,0.7,1.1,2.1,1.7c0.5,0.2,0.7,0.5,1.1,0.7c0.9,0.5,1.8,0.9,2.5,1.3c0.9,0.5,1.8,0.9,2.7,1.5c0.7,0.5,1.1,0.9,1.6,1.3
		c0.2,0.2,0.5,0.5,0.7,0.7l3.3,2.9l-3,0.6c1.1,0.5,2.3,1.1,3.3,1.5c2.1,0.9,4,2,6.1,2.9c1.4,0.7,2.3,2.4,2.2,3.3
		c0.2,0.8,0,1.5-0.5,2h0.2c3,1.4,5.8,2.4,8.8,3.6l4.5,1.7c0.9,0.5,1.4,1.1,1.4,1.3l0.7,1.3l-0.7,0.8l18,8l-2.7,2.4l13.5,7.3
		L260,570.6z"/>
</g>
<g id="_x39_3siFd.tif">
	
		<image style="overflow:visible;" width="1300" height="1300" id="Layer_0_1_" xlink:href="FCCE2113AF8AE5D3.png"  transform="matrix(1 0 0 1 -366.9 862.7379)">
	</image>
</g>
</svg>
