<?xml version="1.0" encoding="utf-8"?>
<!-- Generator: Adobe Illustrator 23.0.4, SVG Export Plug-In . SVG Version: 6.00 Build 0)  -->
<svg version="1.1" id="Calque_1" xmlns="http://www.w3.org/2000/svg" xmlns:xlink="http://www.w3.org/1999/xlink" x="0px" y="0px"
	 viewBox="0 0 3096 3096" style="enable-background:new 0 0 3096 3096;" xml:space="preserve">
<style type="text/css">
	.st0{fill:none;stroke:url(#SVGID_1_);stroke-width:30;stroke-miterlimit:10;}
	.st1{fill:none;stroke:url(#SVGID_2_);stroke-width:30;stroke-miterlimit:10;}
	.st2{fill:none;stroke:url(#SVGID_3_);stroke-width:30;stroke-miterlimit:10;}
	.st3{fill:none;stroke:url(#SVGID_4_);stroke-width:30;stroke-miterlimit:10;}
	.st4{fill:none;stroke:url(#SVGID_5_);stroke-width:30;stroke-miterlimit:10;}
	.st5{fill:none;stroke:url(#SVGID_6_);stroke-width:30;stroke-miterlimit:10;}
	.st6{fill:none;stroke:url(#SVGID_7_);stroke-width:30;stroke-miterlimit:10;}
	.st7{fill:none;stroke:url(#SVGID_8_);stroke-width:30;stroke-miterlimit:10;}
</style>
<linearGradient id="SVGID_1_" gradientUnits="userSpaceOnUse" x1="1215.7938" y1="1750.5663" x2="3110.2571" y2="1750.5663">
	<stop  offset="0" style="stop-color:#00FF99"/>
	<stop  offset="1" style="stop-color:#33CCFF"/>
</linearGradient>
<path class="st0" d="M3096,957.5c0,0-38-116.3-154.4-102.6c-116.3,13.7-171.1-34.2-253.2-34.2c-82.1,0-130,75.3-348.9,109.5
	c-218.9,34.2-250.9,11.4-362.6,84.4s-161.9,73-328.4,168.8S1431.8,1311,1431.8,1311s-98.1,132.3-127.7,196.1
	c-29.6,63.9-47.9,150.5-57,271.4c-9.1,120.9-18.2,264.6-16,358.1c2.3,93.5,34.2,301,79.8,351.2s159.6,207.5,335.3,191.6
	s271.4-29.6,314.7-34.2c43.3-4.6,214.4-63.9,301-88.9c86.7-25.1,221.2-141.4,310.2-205.3s193.9-152.8,246.3-230.3
	c52.5-77.5,111.8-164.2,164.2-230.3s113.3-139.7,113.3-139.7"/>
<linearGradient id="SVGID_2_" gradientUnits="userSpaceOnUse" x1="-4.6983" y1="262.6397" x2="3108.2119" y2="262.6397">
	<stop  offset="0" style="stop-color:#00FF99"/>
	<stop  offset="1" style="stop-color:#33CCFF"/>
</linearGradient>
<path class="st1" d="M3096,451.2c0,0-58.6-82.1-168-143.7c-109.5-61.6-212.1-164.2-417.4-143.7C2305.3,184.3,2278,245.9,2018,198
	S1803.3,40.6,1548,95.4s-248.4,82.1-453.7,61.6s-109.5-75.3-403.7,13.7S328,265.8,328,265.8s-41.5,47.3-184.7,0S0,218.5,0,218.5"/>
<linearGradient id="SVGID_3_" gradientUnits="userSpaceOnUse" x1="-4.3957" y1="2043.9758" x2="1170.4489" y2="2043.9758">
	<stop  offset="0" style="stop-color:#00FF99"/>
	<stop  offset="1" style="stop-color:#33CCFF"/>
</linearGradient>
<path class="st2" d="M0,1942.7c0,0,334.8-102.6,656.4-123.2c0,0,34.2,27.4-130,177.9s-335.3,376.3-335.3,376.3
	s259.1-253.2,468.2-396.8s318.6-199.6,400.7-226.4c82.1-26.8,136.8-81.5,54.7,69c-82.1,150.5-136.8,226.6-136.8,226.6"/>
<linearGradient id="SVGID_4_" gradientUnits="userSpaceOnUse" x1="276.7604" y1="2339.4768" x2="1241.4222" y2="2339.4768">
	<stop  offset="0" style="stop-color:#00FF99"/>
	<stop  offset="1" style="stop-color:#33CCFF"/>
</linearGradient>
<path class="st3" d="M1230.8,1750.6c0,0-225.4,226.4-369.1,459s-205.3,376.3-390,547.4S287,2928,287,2928"/>
<linearGradient id="SVGID_5_" gradientUnits="userSpaceOnUse" x1="-9.3355" y1="2870.8188" x2="1922.4429" y2="2870.8188">
	<stop  offset="0" style="stop-color:#00FF99"/>
	<stop  offset="1" style="stop-color:#33CCFF"/>
</linearGradient>
<path class="st4" d="M0,3092.8c0,0,362.2-288,676.9-294.8s506.3,20.5,800.5-27.4s438.3-120.1,438.3-120.1"/>
<linearGradient id="SVGID_6_" gradientUnits="userSpaceOnUse" x1="1713.158" y1="2873.7021" x2="1926.4512" y2="2873.7021">
	<stop  offset="0" style="stop-color:#00FF99"/>
	<stop  offset="1" style="stop-color:#33CCFF"/>
</linearGradient>
<path class="st5" d="M1915.7,2650.5c-287.4,294.2-36.3,403-199,442.3"/>
<linearGradient id="SVGID_7_" gradientUnits="userSpaceOnUse" x1="-11.3907" y1="629.7128" x2="3110.0786" y2="629.7128">
	<stop  offset="0" style="stop-color:#00FF99"/>
	<stop  offset="1" style="stop-color:#33CCFF"/>
</linearGradient>
<path class="st6" d="M3096,745.4c0,0-136.3-370.7-527.4-294.2c-314.7,61.6-390.1,107.4-851.9-56.8s-468.6,133.1-957.8,406.3
	S0,759,0,759"/>
<linearGradient id="SVGID_8_" gradientUnits="userSpaceOnUse" x1="-1.7443" y1="1134.0236" x2="3109.8542" y2="1134.0236">
	<stop  offset="0" style="stop-color:#00FF99"/>
	<stop  offset="1" style="stop-color:#33CCFF"/>
</linearGradient>
<path class="st7" d="M3096,820.6c0,0-144.3-347.6-527.4-190.9S1049.7,1580.1,817,1648.5s-817,0-817,0"/>
</svg>
